<svg xmlns="http://www.w3.org/2000/svg" id="svg95" version="1.1" viewBox="0 0 1000 600">
  <path id="0001000" d="m432.233 254.631.838.657 1.784.734 1.063 3.3.825.67.322.837 4.381.49.49 2.19 1.185 1.173-.6 1.49.542 2.136 1.566 1.553 1.675.85 2.345.503 1.968.6 2.026.238 1.534 1.327v.85l.385 1.765 1.122.748 1.469.67 1.546 2.512.825 1.34.348 1.495-1.894.567-1.289 1.289-1.327.67-.992-.168-1.533.168-.445 1.616-1.382-1.37-1.189 1.429-1.176 2.01-.588 1.255.138 1.751-.053 1.684.168 2.076-.233 1.915-.433 1.704-.058 1.114 1.733 1.566.335 1.508 5.193 4.02 2.138 1.09.722.92-5.482-.444-1.709-.906-4.447-3.235-1.804-1.515-1.198-1.007-1.481-2.92-2.317-2.031-1.985.613-1.198-1.283.168 3.35-.67.165-1.16-.837-1.52.67-1.508.337-1.507.837.67 2.68-4.859 1.03 1.676-7.062-.825-1.005-2.132-.444-2.069-.394-.502-1.636-.94-1.881-1.727-.335-2.023.154-2.333-.657-1.185-1.005-1.675.335-2.513-2.01-.167-1.005 2.68-2.177-.85-.838 5.025-1.842 1.688-1.675-2.899-2.268 1.688-.486.027-1.297-4.35.364-3.01-2.679-1.507.168-.167-3.015-.335-.168 2.177-1.34 1.005-.837 1.508-.838 1.172-1.005 1.45-1.617 1.063-1.063 1.005-1.495.825-1.018.85-1.34.728-1.784-.895-1.063.167-1.173 1.843 1.005 1.172-.67 1.804-.502 1.546-.657 1.843-.516 1.675-.824 1.34-.683 1.662-.838 1.086-.651-.068 1.321z"/>
  <path id="0002000" d="m761.356 536.206 1.474.318 1.413.312 1.886 1.715 2.765.167 5.072-10.31 1.151-1.897.549-.285.327 2.159 1.005 1.236 1.502 3.781.117 1.6-.212 1.613-.163 1.409.546 2.764.466 1.694-.432 1.58 3.807 3.115-1.16.699-1.245.753-3.026.735-3.684-.012-1.202.492-.14 1.34-1.603.432-.394 2.237-4.461-.394-.308-.882-1.086.33-.787 1.384-.167 1.68-1.162-.217.994-2.41-1.088-.89-1.09-1.675-.555-1.328.448-1.886 1.113-1.644-2.382-2.754-1.393-2.136-3.21-3.435.446-1.38.857-1.315 1.11-.42 1.893.084 1.506.468.503 1.173z"/>
  <path id="0003000" d="m367.908 353.796.765.43.776-.43.706.74 3.448.265 1.172-1.284 1.173-.559-.67-1.005 3.183-.335.502-.67.634.49.204 1.018 3.893-.611 3.654 1.415.158 2.546-1.005 1.675 2.44 2.105-1.65 2.13-.757-.047-1.165.21-1.548.795.335.502.637.168 1.373 1.139.382.75-.382 1.595-1.377 1.15-.7-.95-.704.503-1.12-.55-.876-.037-.87.325.12 1.267-2.01.503-.336 2.78-.562.69-.275 1.153-.636.42-3.05-.018-1.775-1.005.402-1.675.368-.503.1-.502-.435-.737 1.273-1.106-.912-3.157-.837-.676-.288-1.454.094-1.078-2.177-.167-.335-.838h-1.407l-.603-.67-1.34-2.68-.048-1.89-.502-.838-.026-.884.696-.816 1.555 1.245.335-.837z"/>
  <path id="0004000" d="m345.63 287.125.81-1.478-.307-2.542 5.43-1.768 2.276-1.078 1.676-.508 1.004.172 3.437 1.005 2.09.335 2.346 1.675 4.45.67h3.94l4.649-.67 7.9-1.675 5.459-1.607 3.25-1.073 3.491-1.34 3.444-1.497 1.608-.681 4.692-2.846.335.168.167 3.015 1.508-.168 3.01 2.679-1.005.335-4.315 4.15-2.252 1.24-1.659-1.074-6.607 1.749-3.438 1.506-2.165.134-1.504-3.685-3.35.335 1.296 3.149-.295.87-1.843.838h-2.68l-1.767 1.51-1.75.5-2.513-.502-1.005.167-1.447 2.22-5.086.126-.67-.503-.335-1.508-1.503-.67-1.177.335-1.1 1.943-1.24 1.91-2.513.168h-2.178l-2.68-.335-2.014-1.005-.503.502-5.025-1.34.083.818-1.883-.318-.708.5.498-1.503-.499-1.62z"/>
  <path id="0005000" d="m21.17 374.733-.826 1.507.099.895-.613 1.029.164 1.424.339 1.088-.335.59-1.34-.168-1.006.167-.837-.086.167.918-.874.815-.695.76-.956.892-1.21 2.048.05 1.267-.494.628-.324 1.547.32 2.382.163 1.392-2.847.67-.162.838L9.11 395l-.96-.313-.715-.022-.313.748.313 1.43-.414.856-1.429.148.168-.918v-.751l-.168-1.005v-1.68l-.167-1.006-.168-1.334-.168-.843-.167-.919-.168-1.259-.167-.918-.168-1.086-.167-1.011-.335-.918-.832-.924-1.01-.336-.249-1.978-.422-4.052 1.085-1.186 4.189-.656.254-1 .168-.675.224-.895.446-.44.386-1.164.203-1.186.248-.838.168-1.253.335-.919.335-.843.335-.751.167-.919.503-.675.335-.919 1.158.133 1.181.283.843.335 2.395.444-.268 1.218-.497 1.253-.457 1.268.24 1.322.597 1.53-.335 1.173.087 1.34.416 1.005.895 1.007.685.523.481-1.683.451-1.014 1.168-.34.675.167.67 2.178z"/>
  <path id="0006000" d="m878.115 382.94-.234.59-.793.109-.648.727.24 1.087h.932l-.503 1.58-.566.084-.506.333-.268.551-1.005.349-.502 1.674-.024 1.295-.803.982-.513.319v-.802l-1.352-1.446-.379-.944-.614-.458-.564.277h-.458l-.73-.368-.475.258-.155-.57.54-.411-.256-.573.088-.682.546-.471.498-.89.003-.797-.424.158-.416-.414-.364-1.607.27-1.118.222-.665-.537-.536-.133-.722 1.82-.744.296.521.41.222.79-.415.609-.91.262-.766 1.215.126-.17 1.175.379.505 2.094.54-.168-.838 1.068-.168.272.395v1.113l.384.18-.492.825-.948.219.077 1.314 1.197-.36.593-.164.195.331z"/>
  <path id="0007000" d="m88.008 179.258-.503-.838-.478-1.818-2.375-1.704 1.158-2.005.69-1.895v-1.288l-.502-1.172.408-.838h1.058l2.143.746 1.751-1.248 4-4.523 1.36-3.685 1.56-3.402 1.784-2.968 1.006.167.34 2.35 2.114-.064.66 2.353.074 2.424-.941 2.091.271.472.838.147.335 1.016.167 2.324.663 2.44-.022 1.134-4.452 1.911-2.219.335-.67.67-.67 3.958.831 3.072-.167 1.676h-1.173l-.664-1.315-1.178-.36-.39-.849.375-.654-.199-.618-1.056.387-.64.9.073 1.058-.786.283-.62.801.066.853-.238 1.176-.94-.322-.162-1.262-2.59-.563-1.269 1.49-.335-.335 1.115-1.272.399-1.236z"/>
  <path id="0020000" d="m580.198 347.223-.729-2.975 3.35 1.843 2.513 2.01 5.36.167.503-2.345 1.005-2.345.167-2.593-3.516-1.26-3.184-.502 1.507-1.842 2.68-1.843 2.178-2.68 2.848-.67 6.198 1.842-1.238-1.917-1.945-1.098 3.685.168 2.596 1.842 4.616-4.513 2.2.092 3.61-2.558 4.064-6.086 1.83-2.013 6.722 3.343 3.006-1.665 3.685-.335 2.68 1.172 3.862 3.844 3.145.385.196 3.142 2.345.837 6.323-1.723-1.13-3.637 2.835-4.693-2.5-2.845 2.345-1.005 1.842-.837 1.173 2.177 5.695 5.193 2.668.835 1.386 3.275.624 3.592-3.35 4.356-.49 1.677.67 1.508 1.005 2.176.167 3.352 1.59 1.842 2.263 1.34 2.735.894 2.458-.056 3.49.326 1.87 1.767 1.228 2.15-2.246 3.124h-2.345l.168 2.68 3.007.33.008 3.188-1.494 1.175-12.563 6.7-6.952.503-2.989-1.117-3.629-.056-3.239 1.285-9.156 6.086-8.287 3.391-2.266 1.632 3.295-.557 1.56-.614 1.845 1.843-1.172 4.69-1.421 1.173-3.604 1.253v3.604l-1.173 2.594 5.025 5.614 1.005 2.178-.167 2.68-3.518 3.517-1.172 1.926-4.69-1.088-3.686 5.025-.837 2.513-2.355 1.852-2.616-.288-8.765 1.953-9.292-3.35-3.438.335-.207 3.565 2.384 3.973-1.34 1.842.092 13.164 3.765-1.104 3.517.335 1.508-.503.936 3.35-7.134 1.508-1.34 4.69.67 2.847 3.183.907.67 1.774 2.226 3.446 3.636.239 2.01 3.35 1.173 3.685-2.513 3.685 1.843 6.434 2.018 3.068.495 3.632-4.394.099-2.307 1.675-5.373 1.183-3.173.326-2.513-1.675-1.814-2.721-2.541-1.3-1.005-3.014-2.178-1.843-5.441 4.02-3.684.67-5.698-2.345-3.1-.167-3.516-2.513-1.51-9.548-.92-1.842.083-1.675-.67-1.843-.167-2.176-5.026-3.017-1.34-4.187-2.68-1.423-1.59-1.927-1.592-5.107v-7.204l-.838-2.765-3.015-1.842-1.675-4.858-1.173-1.675-1.172-.838-1.005-2.345 1.842-5.19-2.676-2.686-1.005-2.345 2.457-1.463 1.897-2.162 1.962-4.846 12.947-2.92-1.973-8.988-1.378-2.737-4.187-.502-1.817-7.505 11.26-2.416-.246-4.693-2.668 1.551-.837-1.34 1.675-1.672-1.038-3.048-2.48-1.642 1.172-9.242-1.172-2.821 1.691-1.521 2.697-.184 2.815-3.82-2.513-.168-2.177-4.355 1.507-1.342 3.518-1.005 3.518.335 1.341-.537 2.654 2.518 3.473 1.637.237 2.582 2.512-.003 2.868 1.351z"/>
  <path id="0021000" d="m774.394 184.904-5.96-2.467 1.13-2.178-5.82-4.02-.23-2.926-1.722-3.219 2.749-1.897 1.337-2.507 1.507-1.34 1.675.67 2.178.167 4.854-1.338 3.022 1.5-.003-2.805 1.675-6.235-.113-3.97 1.118-1.39.5-4.52 1.35-.347 3.953-3.01 1.445.837 2.981-.252 1.667-1.423-1.675-1.675.667-2.843 1.678-2.015-1.175-2.172.836-2.69-1.34-2.68-2.01-.837.838-1.666 1.702-1.65-.052-1.842 1.954-1.583.584-2.128.07-2.345.768-1.843 1.675-1.172 2.319-1.65 2.199-1.7 2.182.67.837 1.842 2.01 1.536-.736 2.854 2.58-.37 1.507-1.675 1.314.31 1.198.863 3.212.463 3.075 1.134.246 2.926.67 1.372 2.039-.16 2.782 1.133 1.744 1.34.973 1.172 1.373.503 2.605.502 4.395.222 4.022 2.123 4.69-1.005 3.416.69 2.402 1.434 2.558 1.059 2.743 1.403 2.282 2.282 3.128 1.062 2.232-2.234 1.508-2.178 1.94 1.508 2.423 1.043 2.717-.582 1.965-1.634 3.01.335 1.108-1.34 2.583-.838 3.015-.502 4.369.167-.182 2.345-.27 2.346 1.443.335 1.005 2.177-.838 1.675-.167 2.01-.168 2.41-.335 3.178-1.546 1.141-2.641 10.692 2.852.38 3.346 2.635 3.517-1.508 2.805.827 3.728 2.859 4.69 1.005.83 1.962 1.18 3.025 1.22.871-.047 1.805.335 3.387.335 3.22-.503 1.81-.87 1.34-1.642.837-1.675.336-1.676 1.842-2.075 1.005-3.62.503-.837 2.745v4.457l-3.853.168-.335 4.187-1.94-.502-2.724.644-1.366 1.366-2.345-1.508-.168-3.08-2.4-1.275-2.29.8.168 3.89-3.518.168-1.314.864-1.064 1.816-2.789-1.146-4.214-5.052-1.895-.908-2.691.904-1.565 2.01-2.01 1.843-1.005 2.345-1.675 2.01-2.513-.502-2.68-.168-1.742 4.322-2.165-.177-5.52 3.23-7.679-3.325-2.371-.36-1.005-.503-2.41-.168-1.275-1.172-2.45-.525 1.78-2.49 2.654-1.147-1.18-1.701-2.144-.335-1.34-1.005-1.34-.168-1.843-1.372-1.005-1.14-1.507-.838-1.843-1.875-2.357-.715-3.338.245-2.01.168-2.41.837-2.087-.36-3.144 1.37-2.358-.623-.766-2.69-1.798-.377-2.01-.502-1.843.335-1.843 1.34-1.649-2.32-2.37-1.365-2.848 1.005.502 1.172-1.005 2.68-2.178.67-1.842-.167-2.01-1.205-2.513-1.675z"/>
  <path id="0022000" d="m693.367 495.337 2.078 1.675 2.11 3.35 4.079-.097 1.025-2.918 1.774-.837.838-1.34.502-2.848 1.508-2.01 3.95 2.967 1.912-2.198v-2.917l-2.01-3.045 8.198-8.376 3.522-2.345 1.906-.502 1.44 1.172 1.004 2.178-.335 2.512 1.675-.502 1.576-1.843 2.444-.501 1.676 1.506 2.177.838.68 2.346-.67 1.842-.847 1.005 2.188 8.04h1.005l-.503-5.33.503-4.561-.513-3.007-2.65-4.502-3.69-3.696 1.147-.68 1.476-.837 2.042-.168 1.678-.836 3.11-3.109 2.25.262 2.408 1.905 4.293 4.795 4.25-4.25 1.78 1.067 4.352 4.354.502 2.413.607 3.045.398 3.723 3.626.522 3.075-.658-1.34-3.35-.168-3.853 1.896-1.656 2.534 1.912-.444 3.39 1.461 1.733 2.764.318 2.21 1.874 1.81-.031 1.422-2.676 6.786 1.503 1.843 4.23 1.508 1.13 2.977-.136 2.048.639 2.844-1.007 2.009-1.506 4.862-4.857 2.427 1.67 1.024 2.09 2.073-2.422h1.675l1.34-1.004 1.593 1.336-.751 3.824 2.676 4.554 2.014 4.19 1.675 2.01.576 1.779 5.26-.944-.926 2.319-1.364.696.112 1.173-1.005.502-.167 2.01 2.355 2.858.995 3.005-1.685.66-1.675 1.173-1.833.68 1.33 2.02-.305 2.522.17 1.823.838 2.178 1.676 1.34 1.172 1.34v1.842l-2.513 1.005-1.172 1.508 1.728 2.11.954 1.908-1.242 2.682-1.44 2.015.335 7.7 1.82.503 4.522-.168.837 2.848-.512 2.355.512 2-.66 2.188.828 2.224.167 1.953-1.819 1.508-1.34 2.01-1.172 2.078-1.644 1.105-2.04.334-1.342 3.35-1.675 4.523-.167 1.843-2.008 2.678-.505 2.85-1.052 3.445-3.136 1.747-3.515 1.506-3.185 2.012-1.34 2.915-3.015.77-3.806-1.542-2.392-3.483-7.263-.727-3.625.392-.272 2.388-.898 3.305-3.577.933-2.666.514-2.302-.775-2.748.335-1.675.503-3.114-.502-1.843-1.508-2.018-1.275-2.003-1.573-2.449-1.173-2.408-1.172-3.058-.23-2.135-.44-2.178 1.005-2.173-.331-2.35-6.37-3.014-1.842-1.743.503-2.108-.5-1.677-1.846-2.178-1.842-2.512-2.513-1.005-2.245-1.369-2.715-2.987-5.66.107-3.694-1.897-4.153-3.57-4.146-3.182-.503-3.015-2.847-4.356-.503-2.512-3.015-2.848-4.355-4.188-6.03-1.34-4.464-4.02-2.739-2.679.169-1.006-1.509-1.676-1.674-2.177-1.174-1.842-.502-2.285-1.166-4.881-1.878-4.054-.511-2.94-1.7 1.121-3.186-1.032-2.28-2.345-.67-1.005-2.344-1.005-2.346 2.262-1.634.25-4.06 5.193-2.01-2.01-1.34-1.648-2.534-1.7-1.82-1.007-2.682 1.34.502 2.01.336 1.843 1.005 1.34 1.172 1.575 1.005 3.796 4.021 3.182 5.863zm69.83 58.006-.993 2.41 1.162.219.167-1.681.787-1.383 1.086-.331.308.882 4.461.394.394-2.237 1.603-.432.14-1.34 1.202-.492 3.684.012 3.026-.735 2.405-1.452-3.807-3.114.432-1.58-.466-1.695-.546-2.764.375-3.023-.117-1.599-1.502-3.78-1.005-1.237-.327-2.159-.549.285-1.151 1.897-5.072 10.31-2.765-.167-1.886-1.715-2.887-.63-.503-1.173-1.506-.468-1.894-.084-1.11.42-.856 1.315-.446 1.38 3.21 3.435 1.393 2.136 2.382 2.754-1.113 1.645-.448 1.885.554 1.328 1.091 1.675z"/>
  <path id="0023000" d="m432.233 254.631.068-1.321.937-.689.831-.496.844-.509.838-.578.821-.594.822-.503.642-.61.777-.61.866-.623.838-.67.594-.67.838-.654 1.276-.989.566-.686.663-.511.51-.51.502-.578.77-.862.554-.57.512-.663.51-.51.502-.67.502-.745.503-.67.67-1.097.502-.638.503-.594.503-.594.837-.427.67-.746.663-.512.677-.417.67-.427.556-.556.784-.617.67-.654.654-.518.519-.503.502-.578.918-.842.741-.757.519-.503.502-.578.503-.518-.275 1.539 1.523.395h.898l1.874 1.264.243-.26.595-.09.502-.228 1.34-.016.168.67.335.26 1.34-.428h.941l2.15-1.005 2.253.67.184-.167 1.232.67 1.615-.167 6.03 18.425-.998.664-.358 1.011.854.335.33.671-2.561 2.063-.768.45-.822.502-.36.998-.844.401-.411.946-.434.495-2.29.677-1.053-.502-2.632 1.172-.383.579-1.217.259-1.112.335-1.021.502-.67.714-.838.124-2.01-.93-.437.798-.233 1.137-2.345 1.4v.945l-.503.837-.335.092-.335.79-.61.733-.395-.123-.335.853-.837.411-.374.834-4.202-1.968-1.102-.66-1.358-.794-.64-.3-.916-.257-.956-3.966-.372-1.673-2.825-1.672-8.782 4.097-.05.277-.225-.024-.322-.838-.825-.67-1.063-3.3-1.784-.733z"/>
  <path id="0024000" d="m917.685 257.814.503 2.177 6.533-.67-1.897 7.923-1.118 7.896-.168 5.454-2.936 1.813-3.055-.207-1.212 1.69-.67 2.4-.502 5.36-1.508 5.25.054 5.47-2.901.335-2.504-1.834-2.187-4.029-2.402.503-1.826-.336-1.172-1.842.67-2.178-3.77-.335.35 1.252-1.27.59 1.397 2.569-6.088 1.62-9.715.838-2.345 2.26-1.34 2.262-1.675 1.005 3.602-.335-1.621 1.395-.642 2.457-2.547-.563-.125-1.681-3.652 2.469 1.06 2.506-.892 2.358.53 3.719-4.718.238-2.01-1.173-4.523-.837-5.275.554-5.513-.218-1.32-2.01-1.843-1.005-.596-1.843-3.86 2.078-1.909-1.91-3.398.717-3.393.059.258 3.244-4.522-.168-3.284-4.297-2.579-.728-2.07 1.794-1.374 2.561-.409-2.848-3.517-2.177-2.209-.696 2.559-3.493 1.507-1.005 1.173-1.508 1.005-.67.837-.838.838-1.507.502-2.01-2.177-2.178-1.14-5.362-.535-4.52-3.015-1.34-3.134-.79-2.897-1.85 1.508-3.056.838-2.831.2-2.026.135-1.005-2.178-1.005h-2.138l-2.887 1.172-1.007-2.9 1.71-3.913-.336-1.394-1.675.503-.67-1.508.727-.335.613-1.34-.837-1.116 1.842.111.45-1.675.834-.167.726-1.006-.502-1.34 1.507.446 2.127-.543 4.115-3.39 2.72-4.886 1.462-5.587 7.642-10.251 1.467-4.624 1.908-3.326 2.01-.67 1.993-1.49.32-2.374 2.545-3.338 2.169-1.834.679-2.522 1.507-2.177 1.796-1.169 5.52-3.229 2.165.177 1.742-4.322 2.68.168 2.513.502 1.675-2.01 1.005-2.345 2.01-1.843 1.565-2.01 2.69-.904 1.897.908 4.213 5.052 2.79 1.146 1.063-1.816 1.314-.864 3.518-.167-.168-3.89 2.29-.8 2.4 1.274.168 3.08 2.345 1.508 1.366-1.366 2.724-.644 1.94.502.335-4.187 3.853-.168v-4.457l.837-2.745 3.62-.503 2.076-1.005 1.675-1.842 1.675-.336 1.642-.837.87-1.34.503-1.81-.67-6.607.046-1.805 4.41 2.21 4.635 1.308 2.513 2.178.168 2.68 1.005 3.35 5.695-.838 1.172 1.675 1.173 1.005.67 1.508 2.01 1.062 1.173 2.348v2.845l-.503 3.306.503 2.164.67 2.067-.838.948-.837 2.292-1.34 1.618-.503 2.623.335 2.178-1.508 1.842.026 2.269.896 3.802.251 2.864-1.34 2.12-.335 2.46-1.23 1.896-1.618 1.507-1.842.503-1.667.326-2.018 1.349-1.056 2.123-.462 2.1 1.59 2.641-1.905-.463-2.514-.195-.009 2.504 2.178.838 1.675.837h2.345l-.168 1.508-1.34 1.675-.837 2.234.837 2.68-1.564 1.619-.948 2.402-.168 3.35z"/>
  <path id="0025000" d="m422.182 396.842 1.843-1.028.67-2.992 2.04-1.871.64-1.757-.057-2.067 2.905-1.34-.167-2.68 1.674-2.68 1.341-.838-.837-2.345-3.686.67-4.355-.167-1.507.67-.503-3.183h-3.182l-1.508-4.69 2.345-.838 1.172.67-.335 1.34-1.674.503 2.847 1.675 1.172-1.172-1.303-1.406 1.164.54 1.925-.642 1.062-1.45.167-2.403-1.675-1.172-1.507.335.168-1.843 1.171-.335 1.006-1.005-4.187-.167v-1.675l-2.011.335-1.843-.838-.415-1.835.081-3.19 1.31.838.03 1.842 1.173 1.005 4.02-.502-1.34-8.037.67-1.679 1.172 1.508-.167-1.173 1.675.06.67.934 2.79 1.522 1.774-1.842 1.132 3.273-.167 1.417 2.01 1.074.907-.404.964.698 1.193-.373.787.006 1.16 1.186 1.688-1.689.168-1.675-1.012-1.514 2.687-2.673 1.277 1.646 3.413-.641 2.584-.503 1.603-1.675-.691-2.304.691.629 1.173 1.176-.502 2.01 1.172.667v2.013l3.183-.335 9.105 6.194 1.95-1.005 1.005-3.015 7.538-1.34 8.04-8.878 4.523-.335 1.771 1.867 11.008-.933 1.794 2.25.67 7.034-6.544.67-1.52 2.274.359 4.092 1.675 5.754 1.238 2.996 2.134 2.431 2.826.544 2.56-.407 1.125.574-1.173 2.346 3.015-.335 2.687 3.51-5.367 1.012-.777 3.853 2.452 4.187 4.52-2.172 3.182 1.34h2.252l2.622-1.356 2.161-1.994 3.685-2.01 4.69-1.386.674.208 3.686-.167 3.015-1.675h2.01l7.898-1.81 1.817 7.505 4.188.502 1.377 2.737 1.973 8.989-12.946 2.92-1.962 4.845-1.898 2.162-2.457 1.463 1.005 2.345-1.675.335-1.843-.837-1.333 2.17-1.85 1.575.329 2.446 1.346 1.85-4.307 1.842-1.22-1.508-2.01-1.34-1.34 3.35-3.015 2.345-2.13-1.172-2.226.837-2.177-.335-3.853.838.67 2.512-1.172 2.07-2.171.952-3.31.329h-2.392l-1.18 1.5-.83 1.91.502 3.122-1.842 1.173-1.005 2.345-2.346.67-1.232 2.177-.341 2.884.736 3.147-1.122 2.802-17.75 7.326-3.393-.734-2.694-2.862-3.05-1.238-2.98 1.406-1.675-4.69-1.675-1.508-2.848-.67-2.68.503-1.507 3.685-2.82 1.48-3.546.53-4.522 2.177-2.957 3.533-3.074-.015-5.025 1.172-.502-2.345-3.302-4.69-6.581-.67.335-4.857-3.685-2.908-.437-4.498-14.471-.635-1.077-1.675-5.849.167 1.062-2.01-.334-4.857.502-3.685 1.005-.168.503-1.507-1.676-.503-5.862.838 1.143-3.658 1.537.308 1.508-6.03-2.653-.336.14-4.187 2.513-.503 1.22-2.321.79-4.211 1.172.167.503 1.843 2.504-2.258 3.191-.422v-2.68l2.927-.495 1.26-4.363h4.188l.335 1.144 3.097.53 1.358-1.7z"/>
  <path id="0026000" d="m562.38 241.902-2.73.78-2.199-.933-2.106-.35-1.34.838-4.187.167-3.064-4.236 1.388.049.595-1.525-.964-2.513-.04-2.192.41-2.648-.5-1.676-1.842-3.015-4.575-4.738-2.345-.405-1.794-1.221 3.354-3.183-.67-1.34 3.015-3.112-.171-2.75 1.008-.839.168-2.345-3.538-2.604-1.037-2.037-1.794.119.503-1.675-.838-1.004-2.01-1.006 2.181-2.178-.003-1.842 1.223-1.415-3.9-.763.131-1.342-1.188-1.219-.844-2.42-1.538-2.398-.415-4.847-4.523-5.528-1.17-.672-2.471-.229-.88-3.314 2.513-.31 2.345 1.676 1.27 1.172.908-.837.837 1.172h2.513l2.01-2.512 3.35-1.34 7.536-5.861 2.876-1.007-.697-2.178 1.675-.502 1.17.504 1.173-1.005-.293-1.689 2.078-1.326 4.534-.07.049-1.272.128-1.211-1.193-1.146 1.902-1.83 1.55.87 1.8 2.815 3.348-1.675 2.345 2.178 1.005 2.68-.837 3.015.522 2.855 3.51 1.893 2.333 2.957 1.096 3.527 2.76 1.33 1.674-2.785 4.855 2.786L586 174.23l2.229.436 2.68-.537 1.698-2.914.985 2.513 2.964 1.506-.67 2.178 4.91-1.026.112-2.136 1.676-2.365-.333-2.037-1.005-2.989 2.678-2.01-1.34-1.507 1.842-1.34 1.675.503h.838l1.507 1.005 2.513.335 4.776-3.1 2.548.32 1.612 4.517 3.076-.894 1.053-4.36 4.693-3.52 4.434-.167 3.44-.502 1.507 4.02-.503 2.512-1.842 2.345-1.261 3.333-.533 3.102-2.562 2.038-.837 4.593-2.18.333-.525-1.675-4.02 1.675-2.606.573-3.065 4.957 1.843 2.512 2.177 2.178 1.173 2.512.335 3.615 2.01 1.243 1.005 2.345 2.178 1.173 1.172 1.005-.187 1.359.355 3.33 1.172-.766 1.508 1.437 2.68-1.173 3.015-1.675 2.468-.335 1.385.67 2.512 1.508 2.346 1.675.837-1.34 1.005-1.464 2.371-.044-.36 2.61-.838 2.75 1.34 2.345-1.005 3.518-.67 2.345.335 2.442 1.437.238.573 1.34 1.483-.84 4.715-2.007.854.333 1.634 1.34 3.542 2.682 1.842 2.177 1.843-.335 1.694.651 2.661-.316 1.173-.502 2.512-1.005 2.777-1.173 2.751-1.675 2.178-2.512 2.226-1.462 4.068.122 4.02.502 3.589 2.01.335 2.68 2.01 2.513.67 3.015 2.512 1.508 2.197 3.202.483 2.158 1.173 1.675v1.842l-3.685 4.02-.335 4.523-2.01 3.015-1.746 1.09-.767-1.09-2.847-1.27-1.173-.572-2.345.167-.168 3.015-3.182.67-3.183-.837-2.345-2.513-3.015-1.172-3.112-.67-2.583 2.159-1.34 3.633-.503 3.588-1.34 2.847.154 1.674-.67 2.512.167 3.35-.837 2.577 2.772.15 2.086 1.46 1.005 5.194-1.508 2.847-2.59 1.426-1.933 1.422-2.01-.335-3.015.04-2.01-3.454-1.842-2.449-1.97-.335-2.01.838-1.38 1.842-2.165-1.003-2.68-3.685-2.847-1.005-1.508 3.015-2.712 2.701-5.328 3.329-2.178.238-.67-2.512 1.005-1.244-.335-1.34 1.005-2.177-1.172-.335-1.843 1.507-1.675 1.843-3.209.67-2.486.167-1.34-1.005-6.868-3.852-1.865.532-2.46 2.416-1.755-.612-1.962.18-.838 1.507 1.005.67 2.53 1.022-.35 2.66-2.848 1.508-.353 2.03-.989 1.658-1.17.931-.336 1.578h-1.005l-1.842.67-1.005-1.005-1.34-.67-.503-1.34v-2.01l-2.43-4.605-1.826-2.144-2.902.216-2.39.335-1.004 2.178-2.178 1.27.167 1.075-.67 1.173-2.512.67-.07 2.295-.266 1.892.587 2.094-2.932-.419-3.28-2.01-2.752.171-3.35-1.172-1.34-.168-1.34-.837-.786-1.686-.054-2.84.499-1.634-1.671-1.549-.405-1.772 1.557-1.266-1.65-2.657 1.842-2.442-.838-2.01.499-2.416-2.01-.837.67-1.675-.668-2.01-3.017-3.178 1.06-2.433 2.122-.252.855-1.6 2.513-.837-3.32-3.042-1.07-.308z"/>
  <path id="0027000" d="m66.897 287.628 3.015.335.602 1.24 3.585.937 3.082 1.843-2.244 3.015.254 2.137-.49 2.16-3.45-.444-1.842.837 1.508-.167 3.583 1.37 4.658.723-.704 3.77 2.28 2.925 2.918-.747 1.503.669 1.34.168 2.852-1.172h1.264l2.086 2.512-.502 2.848 4.522 8.543 2.178-.838 5.05 1.629 7.01 6.092 1.508 3.09.167 2.848-1.172 2.254 2.345.411.502 2.193-.67 2.756-1.675 1.508 1.843 1.172 3.015 1.264 1.675 1.919 2.178.837-1.34 2.27 1.34 4.096.163 2.512-.67 2.01-.838 1.842-.665 2.346-1.843-.838-2.345 1.005-1.34 2.528 1.792 2.221 1.223 2.957-1.005 1.675.503 1.507-1.005 2.68-.336 2.178 1.6 1.507 1.75.853-1.004 1.828-.335 1.507 2.512 1.675 3.198 1.34 3.67.168 3.533-.838.487 2.68 2.36 2.01 6.183-2.345.685 2.345-1.192 1.507-1.508.67-.67 1.34-.335 1.625 1.675 1.507-.335 1.558.335 2.01 1.457 1.34 3.066 1.508 2.513 2.848-2.68 3.517-7.823 1.675 2.462 1.675 1.173 4.355 1.842 1.676-1.172 3.852-3.015-.502-6.03 2.847-3.35.503-3.183-1.173-3.451-.402-3.148 1.575-.94 2.177-1.507 1.173-.837 1.34-4.188 1.34-1.172.837-2.513 3.016-.503 1.507-1.675.168-5.695.335-1.005-1.173-3.015-1.005-1.34-1.005-1.005.168-3.35-.503-2.345.67-1.005 1.34h-1.508l-.503.335-1.34 2.797-1.842 1.056-3.685 1.675-1.508-1.005-1.172.67-6.366 10.553-12.73 5.025-2.513 1.34-1.842.335-3.518 4.02-1.005 2.512-1.843 1.34-1.842 3.518-5.863 2.01-.67 2.01 1.34 6.198-.335.67-.502 2.076-1.235 1.384-.381 2.304-1.014.936-3.233 5.528-5.695-2.178-5.26 1.675-7.052 1.34-4.02-18.51L1.4 462.169l-.67-3.985-.167-6.233.502-4.187.67-8.24-.335-6.668-.67-4.036v-5.68l.67-4.02.838-3.35 1.005-3.3.67-3.299.837-3.4.67-3.853.171-4.069 1.429-.148.414-.857-.313-1.43.313-.747.715.022 1.803.648.162-.838 2.847-.67-.483-3.774.068-.35.256-1.197.494-.628-.05-1.267 1.21-2.048 1.651-1.652.874-.815-.167-.918.837.086 1.005-.167 1.34.167.336-.589-.339-1.088-.164-1.424.613-1.029-.114-.897.841-1.505-.67-2.178-.676-.167-1.167.34-.45 1.014-.482 1.683-.685-.523-.895-1.007-.416-1.005-.087-1.34.335-1.172-.597-1.53-.24-1.324 1.222-3.738-2.395-.444-2.024-.618-1.158-.133 1.672-5.449.837-3.802.838-3.35.837-3.4.67-4.32.67-4.072.335-4.34.168-3.867.167-6.26.168-5.953-.335-5.36v-3.015l.837-3.183 1.843-1.842 2.177-1.34 2.346-1.843 1.675-2.01 2.01-1.34 2.01-1.34 2.01-1.34 1.467-1.588 2.67-.757 2.177-1.34 4.741-3.518 4.985-5.447 4.06-4.435 2.848-2.68 1.675-1.676 2.178 1.34 1.545.658 3.815 2.86 1.391 2.565-.386.792.188.906-.355 2.772z"/>
  <path id="0028000" d="m335.916 399.522 1.018 2.405 2.942.565-3.015 5.419 2.94 2.634-.032 5.225 3.015 3.183 1.14 2.312-4.658 5.56-5.908.503-.122 1.173-8.484-1.446-3.576-.397-.526 1.173-1.82 1.005-2.673.502-6.585.503-6.32.167.396 2.147-.772 2.507 1.381 2.64-2.41 1.885-4.29 2.211-3.183 2.346-1.507 1.675-1.889-1.358-1.796-2.663-2.9.074-2.628-1.079-1.005-2.512-1.721-3.535-1.127-4.673 1.519-1.944-1.854-7.436-3.41-.013-2.065-1.83-2.9-.144-2.093 5.338-2.43-1.843-1.34-.167-2.68 1.842-2.93-1.842-3.939-.503-5.56-4.502-5.94-.912-1.565-2.123.109-2.898.728-1.625 1.843-.837-.67-2.68.954-2.79-1.948-1.912-2.021-.491-1.593-1.173 1.76-1.172 1.34-3.265-1.172-2.765 1.675-1.758.168-10.135.67.167 1.508 2.178 3.767-1.675-.17-1.603 1.704.71 2.069-.782-4.02-4.523 1.005-2.178-.67-3.097 6.867 1.422 2.178-.67.335-6.532 2.848-1.677-2.595-3.014-1.76-6.532-5.36.501-.67-1.005 2.177-.335-.167-2.68 2.345.167 3.685.503.335-2.847 2.68 1.004.502-2.847h14.955l1.992-1.34 1.317.67.938-.228 3.122 5.589 2.635-.335 5.198 1.172h1.837l.838-.508 1.309-1.403 2.262-.046 3.763 1.51 2.572-.318.485-1.412-.676-1.508.173-1.34.665-1.34 1.393-1.393 1.843.776 3.481-.053 4.17 2.535 2.486-.675 1.702-2.028 1.866-2.01 1.987-1.34 1.675-4.69-3.219-3.554-1.136-1.973 1.38-1.139 1.803-.375 5.527-6.192 1.34.52.503 1.686 1.34 1.312 7.71-1.173 4.685-3.685 2.513-.792 2.68 13.187-1.005 3.518-7.607 1.842-1.908 1.307-1.038 2.043-1.842 1.675-.838 2.345.102 1.777 1.764 1.574 4.5.502 3.685 3.685-2.178 1.005-2.01-.67 2.145 4.825-5.932 3.82-.568 5.426-4.188.837.19 4.02 7.417 1.843 2.778-.168 1.005 2.68-7.672.973-.535 3.885 5.192 3.183-.167 1.842-2.095 6.703.489 2.411-.74 1.941-5.192 1.843z"/>
  <path id="0029000" d="m739.041 257.45-2.768.866-3.548-3.686-1.842-2.345-1.685-3.084-.828-3.449-.67 1.173-.837.502-.838 1.005-2.198 1.006-4.167-1.173-1.005.502-3.518-1.507-1.477.168-1.538-.168-.975 2.68-1.005-.502-1.005-.167-1.005.167h-2.345l-2.104.837-.941 1.172-1.675.168-1.565-1.085 1.746-1.09 2.01-3.016.335-4.523 3.685-4.02v-1.842l-1.173-1.675-.483-2.158-2.197-3.202-2.512-1.508-.67-3.015-2.01-2.513-.335-2.68-3.589-2.01-4.02-.502-4.068-.122-.815-.82-.725-1.338-.503-1.96-.167-2.294 1.172-1.507 1.34.167 1.005-.167 1.508-.67 1.005 1.66 1.508-.655.67-1.173-.503-1.675-.837-1.675 1.34-.837.634-1.17 1.005-1.005 2.508-1.177 1.38.84 1.269.434 1.036 1.239.837-.335h1.508l.52-1.093 2.16.255 2.496-.546 3.265-.145 3.452-.649 4.304-.262.446-1.68-1.178-2.735.183-2.118 3.95-.472.688-2.034-1.27-.88-1.013-1.636 3.325.348 7.524 2.09 11.558-3.852-2.68-4.69-2.285 2.449-2.382-1.786.606-2.115 5.007.295.053-3.239 2.042-.838 4.533-.92-.288-1.207-1.912-4.49 1.574-2.46 1.373 1.244 4.642-1.823.26 1.959 1.852 1.373 2.743-.398 3.848-.387 1.723 3.219.229 2.926 5.82 4.02-1.13 2.178 5.96 2.467.194 3.869 4.523 2.88 1.842.167 2.178-.67 1.005-2.68-.502-1.172 2.847-1.005 2.371 1.366 1.65 2.319 1.842-1.34 1.843-.335 3.808.878.766 2.691 2.358.622 3.144-1.37 2.086.361 2.41-.837 5.35-.413 2.356.715 1.843 1.875 1.507.838 1.005 1.14 1.843 1.372 1.34.168 1.34 1.005 2.145.335 1.179 1.701-2.654 1.147-1.78 2.49 2.45.525 1.275 1.172 2.41.168 1.005.502 2.371.361 7.68 3.324-1.797 1.169-1.507 2.177-.68 2.522-2.168 1.834-2.545 3.338-.32 2.374-1.993 1.49-2.01.67-1.908 3.326-1.467 4.624-7.642 10.25-1.462 5.588-2.72 4.886-4.115 3.39-2.127.543-1.507-.446.502 1.34-.727 1.006-.834.167-.449 1.675-1.842-.11.837 1.115-.613 1.34-.727.335.67 1.508 1.675-.503.335 1.394-.673 1.622-1.036 2.292-9.812.058-1.577-2.017-3.685.838-2.559 2.102-2.299 2.588-2.315.17-2.877.835-3.183.67-3.35 1.675-4.69 3.518-3.015.837-.168-3.557-1.172-2.808-2.345-8.104v-3.956l-3.35-3.853-2.178-1.842-1.34-2.345-3.14-.321-2.112-1.627-2.256.106-1.726 1.675-1.876 1.759z"/>
  <path id="0030000" d="m335.916 399.522 5.193-1.842.739-1.942-.49-2.41 2.096-6.704.167-1.842-5.192-3.183.535-3.885 7.672-.972-1.005-2.68-2.52.247-7.675-1.923-.19-4.02 4.188-.837.502-5.36 5.998-3.886-2.145-4.825 2.01.67 2.178-1.005-3.686-3.685-4.5-.502-1.763-1.574-.102-1.777.838-2.345 1.842-1.675 1.038-2.043 1.908-1.307 7.607-1.842 1.005-3.518-2.68-13.187-2.513.792-2.847-17.756 2.512-1.34 2.848-.502 4.216-.57.814.814 7.198-.412.67 2.178 2.504-.552 1.851-.453 1.435 2.557 2.25.793 5.726 3.99 1.479 2.989.503 3.414 1.48 2.131 1.34.845.922 1.61 1.531 1.806 2.095 1.64-2.343 7.542h1.34l-2.345 7.035 6.644 3.18.39 1.51 1.783-1.674 1.232-1.847.504-.834.67 1.172.271 1.355.231 1.326 1.005-.67-.167-2.513 1.395-.338 1.618-.838 6.032.17 1.508-2.01 1.117-.17-.449 2.345 1.342 3.689 8.878-1.005-.17 2.341 2.347 2.349-1.006 1.839 1.676 2.683 3.015.838 1.34 8.037-4.02.502-1.173-1.005-.03-1.842-1.31-.838-.08 3.19.414 1.835 1.843.838 2.01-.335v1.675l4.188.167-1.006 1.005-1.171.335-.168 1.843 1.507-.335 1.675 1.172-.167 2.402-1.062 1.451-1.925.641-1.034-.473 1.173 1.34-1.172 1.172-2.847-1.675 1.674-.502.335-1.34-1.172-.67-2.345.837 1.508 4.69h3.182l.503 3.183 1.507-.67 4.355.167 3.686-.67.837 2.345-1.34.838-1.675 2.68.167 2.68-2.905 1.34.057 2.067-.64 1.757-2.04 1.871-.67 2.992-1.843 1.028-2.747.31-1.358 1.7-3.097-.53-.335-1.145h-4.188l-1.005 3.518-.255.845-2.928.495.001 2.68-3.19.423-2.505 2.257-.503-1.842-1.172-.168-.795 4.224-1.215 2.31-2.513.502-.14 4.187 2.653.335-1.508 6.03-1.537-.307-1.143 3.658 5.862-.838 1.676.503-.503 1.507-1.005.168-.503 3.88.335 4.662-1.062 2.01-5.151-.175-3.502-.662-2.848 5.025-1.675-1.956-.335-2.428 2.177-6.115-2.01-2.4-3.043 1.006-3.18-.307-3.489 1.094-3.467.218-3.273.626-3.816 1.552-8.375 5.36-6.366-.503-2.316-2.148-8.07-2.71-1.674-2.68-3.853-2.512.122-1.173 5.908-.502 4.658-5.561-1.14-2.312-3.015-3.183.033-5.225-2.941-2.634 3.015-5.42-2.942-.563zm43.047-48.574-.502.67-3.183.335.67 1.005-1.173.559-1.172 1.284-3.448-.266-.706-.74-.776.43-.765-.43-.335.838-1.555-1.245-.696.816.528 1.722.048 1.89 1.34 2.68.603.67h1.407l.335.838 2.177.167-.094 1.078.288 1.454.837.676.912 3.157-1.273 1.106.436.737-.1.502-.369.503-.402 1.675 1.775 1.005 3.05.019.636-.42.275-1.154.562-.69.335-2.78 2.01-.503-.12-1.267.87-.325.878.037 1.12.55.703-.502.7.949 1.377-1.15.382-1.594-.382-.751-1.373-1.14-.637-.167-.335-.502 1.548-.796 1.165-.21.757.048 1.65-2.13-2.44-2.105 1.005-1.675-.158-2.546-3.654-1.415-3.893.61-.204-1.017z"/>
  <path id="0031000" d="m737.767 492.49-2.189-8.041.849-1.005.67-1.843-.68-2.345-2.178-.838-1.676-1.506-2.444.501-1.576 1.843-1.675.502.335-2.512-1.005-2.178-1.44-1.172-1.905.502-3.522 2.345-8.198 8.376 2.01 3.045v2.917l-1.913 2.198-3.95-2.967-1.507 2.01-.502 2.847-.838 1.34-1.774.838-1.025 2.918-4.08.097-2.11-3.35-2.077-1.675-8.7 8.208-3.182-5.863-3.796-4.02-1.575-1.006-1.34-1.172-1.843-1.005-2.01-.336-1.34-.502 1.006 2.681 1.7 1.82 1.65 2.534 2.01 1.34-5.194 2.01-.25 4.061-2.262 1.634-3.197-1.744-5.168-.935-5.193-3.517-3.934-1.434-.253-2.587-.08-3.372-.925-3.83-1.08-3.767-1.856-1.545-4.022 2.8-5.103.334-5.025-1.34-2.178-5.528-3.42-.215-2.442 1.388-1.173 3.518-4.8-.174-3.073-2.004-3.273 2.113-2.087-3.01-5.193.897 2.307-1.675 4.394-.099-.495-3.632-2.018-3.068-1.842-6.434 2.512-3.685-1.172-3.685-2.01-3.35-3.637-.239-2.226-3.447-.67-1.773-3.183-.907-.67-2.847 1.34-4.69 7.134-1.508-.936-3.35-1.508.503-3.517-.335-3.765 1.103-.088-13.164 1.336-1.841-2.383-3.973.206-3.565 3.438-.335 9.292 3.35 8.765-1.954 2.616.289 2.355-1.853.837-2.512 3.686-5.025 4.69 1.088 1.172-1.926 3.518-3.517.167-2.68-1.005-2.178-5.025-5.614 1.176-2.595-.004-3.603 3.604-1.253 1.422-1.173 1.172-4.69-1.846-1.843-1.56.614-3.294.557 2.266-1.632 8.287-3.391 9.157-6.086 3.239-1.285 3.628.056 2.989 1.117 6.952-.503 12.563-6.7 1.494-1.175 3.182-2.01-.167-2.178 3.517-2.01 1.692 5.864 3.334.501-.168 2.848 2.345 1.675 2.68-1.843 2.549-2.656 6.664-3.709 2.345-.335 2.529 3.017 2.544-1.007 3.319.17 1.507 2.847-1.69.836 3.014 5.863 6.55-4.019 2.157 2.064.02 2.124.433 4.187 6.434-3.517 2.305-1.988 1.763-3.877 1.707-4.63 14.661 8.987 6.13.838 9.113.335-.205 3.699-.8 3-1.022 1.845 1.173 3.517 3.015-3.015 2.512 4.355-3.668 10.08.35 1.546 1.792-1.613.867 3.22-8.153.895-1.25-2.573-5.235.502-1.686-.793-4.009.793-.85.777-.657 1.4-1.466.544-.246 1.545-.927.927-5.121 3.605-1.412.582v1.005l-2.65.505-.168-3.547-1.961-3.056-5.744-5.29-.099-3.015-4.888-1.675-2.029 2.734-2.897 2.124-2.483 1.675-4.187 9.548-2.848 4.857-1.842 3.016-9.548 4.857 6.532 3.35 3.321 3.389 4.217 19.826 3.321 8.274-3.183 7.203 3.518 3.852 2.763.503 6.814 3.52.808 2.217 2.055 2.65 3.69 3.696 2.65 4.502.513 3.007-.503 4.561.503 5.33z"/>
  <path id="0032000" d="m827.517 510.244-.995-3.005-2.355-2.858.167-2.01 1.005-.502-.112-1.173 1.364-.696.926-2.319.504.17 2.538-.838.335-1.65 1.507-.025 4.853-2.426 3.188-3.94 1.144-.429 1.703.597.503-.837.167-1.34 2.486.5.864.815 2.821-.312-2.177-4.131-.153-4.25-1.02-1.668 1.34-1.62-4.496-7.425 1.316-.021-1.34-2.325-.168-1.266 1.508-.409 1.005 1.508-.335-2.345 2.177-.503 2.01.167v-3.015l2.01-1.675 2.01 1.696 2.346-.02 2.01-.336 2.68-.167 2.68.167 2.104 1.173 3.256-.503h2.008l3.018-1.842 2.451-.594 2.406-.244 3.013.167 1.677.336-.408 1.172h1.581l1.675-.837 1.508 1.005-.764-1.173 1.099-.335.67-.837 2.439.167 1.413-2.847-3.015-1.12 1.843-2.398 4.126.761 4.082-1.933 3.015-2.227.188-3.469 1.152 2.68 5.36 2.346 3.906-.839 2.624-.67 2.848-2.01 2 1.498 1.192 1.601 2.094 3.434 1.759.335 3.35 4.522 1.34.838 3.183.502 2.68-.837 1.842.67 3.005-.01 1.686 1.853 2.055.319 1.797 2.025 4.858-4.69 1.675 2.848 2.67-.167 1.267-2.178 2.419-1.507 2.623.67 2.57-.67 2.712-1.743 1.084-1.943 1.564-.837 1.91-1.037 1.923.889 1.323-.107-.634 2.098 2.345-.335.692-1.91 2.659 1.742-2.178 2.345-1.173 3.35-3.182 5.193.367 2.277 2.313 1.408.135 3.282-2.145 1.576-1.394 2.512-2.96-1.172-2.881-.068-1.81 1.073-1.006 2.233-.995 1.945-1.462 1.014-.558 1.34-1.172 2.01-.168 2.178v1.508l-.837 2.01-1.173 1.73-1.34.447-.67 1.508-.502.335-1.843-.503-1.34.168-1.517 1.163-.996 1.35-2.735 1.34-3.127.167-.335 1.675 1.507.67 1.508 1.507-.848 1.33-1.162 1.183-.168 1.005-1.498.158.828 1.182.168 1.34v1.173l-.559 1.005-.782.725-.67.95-1.005.502-.167 1.06-1.675.168-1.06-.558h-1.62l-.828.828-4.513 4.68-6.552 6.05-1.413 3.008-.889 3.878-2.723 3.835 1.005 3.908 1.172 4.97.168 4.69-.67 3.74-.67 4.3-.66 3.34-.736 1.35-2.96 1.005-3.015-.167-2.68.167-3.35-.335-2.848-.167-3.126-.503-2.568-.838-3.014.168-2.57-.503-1.955-1.172-2.68-.503-2.345-.837-1.507-1.508-1.508 1.507-.502 1.508-2.178 1.005-2.84 1.337-2.353 1.344-2.6.528-2.09-.975-2.172-1.375-1.178-2.366-2.178-1.843-2.493-2.325-1.527-2.03-3.182-.837-1.173-1.843-1.675-1.172-1.786.502-2.057-.325-1.852.828-1.648 1.729-.53 3.128-2.88.236-2.759-.57-2.624.837-.94 1.015-2.02-1.183-1.675 1.675-2.848 2.01-.167-1.953-.828-2.224.66-2.188-.512-2 .512-2.355-.837-2.848-4.523.168-1.82-.503-.334-7.7 1.44-2.015 1.242-2.682-.954-1.908-1.728-2.11 1.172-1.508 2.513-1.005v-1.842l-1.172-1.34-1.676-1.34-.837-2.178-.171-1.823.305-2.522-1.33-2.02 1.833-.68 1.675-1.172z"/>
  <path id="0033000" d="m208.201 286.288-2.269 1.081 1.34 2.604.08 1.839.087 1.679-2.512 1.675v1.843l-.746 3.015-4.112-.503-1.01 3.01-3.807-5.006-1.974-.58-2.422-5.464-3.049-1.106-2.783-.116-.29 2.06.762 2.253-3.015.762-.503 2.512 1.082 1.675 2.269.838 1.675-1.005 1.172 1.005h.67l1.508.837.104 2.087 1.57 1.43.503 2.346-1.675 2.01-3.015-1.173-1.34 3.427-1.901 1.689-3.528-.317-5.291 3.88.172 3.051-2.015 2.508-6.198-.67 2.345 14.908-.914.901-.426 2.952-2.512 5.101-1.34 1.097-2.848 1.172-1.005 1.843-3.812-1.997-.543 1.905 1.34 2.27-.287 1.913 1.457 4.956-1.005 1.842 2.178 2.01-1.506 1.004-.335 2.68 1.675 1.843-1.005 3.243 1.34 2.452 1.507 3.013-2.68 2.012-9.212 1.675-5.193.335-.502 2.848 2.345 2.68 3.517.167 1.508 2.848-.67 3.015-1.845 2.849-2.177-1.005-1.84-2.682-3.121 1.243-3.23-.573-.685-2.345-6.182 2.345-2.36-2.01-.488-2.68-3.533.838-3.67-.168-3.198-1.34-2.512-1.675.335-1.507 1.005-1.828-1.752-.853-1.599-1.507.335-2.178.67-2.01.336-.67-.503-1.507 1.005-1.675-1.223-2.957-1.792-2.22 1.34-2.529 2.345-1.005 1.843.838.502-2.01 1.005-2.178.67-2.01-.167-2.512-.838-2.178-.502-1.919 1.34-2.269-2.178-.837-1.675-1.919-1.172-.426-1.843-.838-1.843-1.172 1.675-1.508.67-2.756-.502-2.193-2.345-.41 1.172-2.255-.167-2.847-1.508-3.091-2.345-2.026-2.145-1.877-2.52-2.19-5.05-1.628-2.178.838-1.507-2.65-1.34-2.878-1.675-3.015.502-2.848-2.086-2.512h-1.264l-1.34.502-1.508.67-1.34-.167-1.507-.67-2.918.747-2.28-2.926.704-3.769-4.658-.723-3.583-1.37-1.508.167 1.843-.837 3.448.443.491-2.159-.254-2.137 2.244-3.015-3.082-1.843-3.585-.937-.602-1.24-3.016-.335-2.177-2.01.355-2.773 8.188-1.246-.6-3.362 3.782-1.16-1.842-13.904 3.759-1.527-1.08-6.357 3.906-1.842-.387-2.68 1.344-.994 1.574.74 2.107.097 4.536-3.766 2.184 1.012.818-.933.167-1.17 1.508-1.173 1.875-.346.146-3.274 4.029-1.11 5.005 2.888 1.434-2.868 2.018.121 2.927 2.914 3.174.502 2.345.335 1.34 2.178-1.281 2.246 2.286 1.104 1.34-.67 3.183-1.675 1.34-2.01 3.471.502 2.726 1.675.838-.67 1.842-.335 2.848.335 2.182 1 1.99-2.005 3.03-.335 2.346-1.34 1.005-1.843 4.858 2.848 4.766 1.34 5.784-.333-.165-2.012 8.153-1.39 1.895-5.477-.357-1.38 1.193-2.48-.335-1.668 1.34-2.347.167-3.013-.335-1.508 2.847 3.517 2.029 1.155.769 1.517-1.29 2.521.67 2.178 1.507 1.507 1.34 2.01 2.258 1.173 2.178 1.675 2.767.67 2.345.335 2.196 1.19-.085 3.132.402 3.004 1.526 1.868.82 2.822-.205 2.892-2.373 1.432-.103 2.916 2.134 1.347 1.384 5.695 1.847-.335 6.868-1.172 4.08 1.439 2.772-1.942.088 3.66-1.915 2.706-.837 3.258-2.178.838z"/>
  <path id="0034000" d="m425.031 342.741-.837-.946.837-.896-.335-3.35-1.507.335-.67 1.183 1.212.827.877.159-1.026.51-1.143-.158-1.468-2.019-2.235-.404-.271-.919 2.379-1.357v-1.42l-.768-.66-2.75 1.243.612-1.507 3.275-.671 1.187-.58.213-1.263h1.567l3.47 1.005h2.058l.516-2.787-.503-.898 5.387-7.547-.362-.996.616-1.09-.685-.85.433-1.94-3.88-2.149-1.456-2.408-.29-1.543.14-1.172.543-.964-.445-1.52.837-1.282v-.66l-.67-2.68 1.507-.837 1.507-.337 1.52-.67 1.16.837.67-.165-.167-3.35 1.198 1.283 1.985-.613 2.317 2.03 1.48 2.92 1.206 1.017-1.017 1.403-.97 2.01.502 1.34 3.685 3.853 1.005 1.28.335 1.567 1.005 1.005 2.298-.311 1.874.128 1.523 2.468.756.317.914-.087.907-.283.883-.387 2.57-1.507 1.057-.838.785-.335v-1.507l3.285.589 1.07.416 4.466.496 3.681-.598 1.398-1.071 2.014.667 1.452 1.136 1.67 3.387 4.751 3.685 1.173.275-.503 1.233 2.345 1.34.503 1.1-.454 2.763.621 1.162-.743 2.13.139 1.693-1.07 1.202.502 1.28-.335 1.507-.503 2.238.335 3.853-4.497.335-8.066 8.874-7.538 1.34-1.005 3.015-1.95 1.005-9.105-6.194-3.183.335v-2.013l-1.172-.667.502-2.01-1.864-1.805-1.078-1.378-1.246-.167-.502-.778-.503-.287-.913.136-1.6.091-1.539.423-2.389-.666.152-1.675-1.39-.092-12.894 1.006z"/>
  <path id="0035000" d="m489.771 195.673-1.258-.42-3.854 2.43-5.193 1.842.503 1.005-1.171.168-.339-.99-3.419.508-.431 1.654-2.01-.167 1.006-5.777-.335-2.595-1.34-2.013-1.174-3.183-.67-.335-.335-6.331-.168-4.287-.335-3.955-.67-3.35-.502-3.819-.503-3.76-.335-4.465-.167-3.685v-3.367l-.335-3.258-.503-3.442-1.34-2.848.168-3.576.167-3.65-.502-3.067 1.005-2.772.837-3.35 1.005-2.981-1.005-3.05-1.172-2.847-.168-3.877-.67-3.401-.837-3.275-.838-2.345-1.172-2.01v-7.203l.335-1.675v-3.282l.335-2.061-.335-4.205-.335-3.35-.168-2.848-1.005-3.425-.12-3.423.623-3.704.837-3.258.444-2.655.394-2.128 3.561.31 3.976.695 2.377.53 4.156-2.54-.88-5.066-.637-2.62 2.095-3.537 6.458-1.34 1.003-3.173 3.283-1.213 4.38-2.535 3.306 1.16 2.78 2.674 2.234-2.825 2.769-1.29 3 2.233 2.656-1.789 3.627-1.535.945-3.583 3.297-2.013 5.414-1.354 3.182 4.523 1.843 9.455.502 6.698 4.858 2.44.168 1.49-.838.854.837 2.177.168 2.848.502 1.34 1.34 8.377 3.686 1.172 1.415 1.34.595-2.68 1.005 2.01v2.68l1.296-.22 2.724.053 1.675 1.917 2.757 1.496 1.749 2.952 2.362-.335 2.01 1.842 2.345.503.138 4.917 2.71 3.792-1.473 1.745-2.882 6.874 3.336 3.066.181 2.387-1.005 2.345.335 2.826-.335 1.528-4.69.335 4.355 4.859.217 1.863-1.966-.525-1.434 1.173-2.58-.548-1.608-2.97-5.695-.335-1.473 3.316-2.01 2.345-2.882 2.138-3.015-1.099-1.172 1.844.56 2.345-1.258 3.374.698 3.494 3.014 2.846 3.424-1.842 4.932-1.005 2.867.335 3.183 3.685.167 2.345 3.519 3.184-.335 2.512-.838.838 1.005.537 2.253.3 2.07.37-1.095 2.51-1.55-.872-1.903 1.831 1.193 1.146-.177 2.482-4.534.071-2.078 1.326.293 1.69-1.172 1.004-1.17-.504-1.676.502.697 2.178-2.876 1.007-2.346 1.843-5.19 4.018-3.352 1.342-2.01 2.512h-2.513l-.835-1.174-.909.837-1.269-1.172-2.345-1.675-2.513.31.88 3.313 2.47.23 1.17.671 4.523 5.528-3.742.627-8.653-.627-.167-2.848-1.074-2.41-1.942 2.226-1.439 2.076-2.748.788-1.173.335 2.178 10.386-1.675 1.507 1.005 1.173-1.675.333-.68 1.79-2.17-.119-.674 1.888-3.01.128 1.006 4.858 3.853.335 1.003 1.505.157 2.579 2.19 8.31-.335 2.346 1.838-.504-.164 1.841-1.675 1.676-2.176 1.005-1.671-.455-1.283-2.161-2.823.274-1.58-2.331-.516-3.198 1.004-1.005-.502-2.847-3.71-1.244-1.07-1.617-.077-1.408-1.843-1.929-1.508 1.005-.67-.502.61-1.111-.107-.9.838-1.338-1.341-1.174.553-.544-.218-.964-1.75-.836z"/>
  <path id="0036000" d="m762.383 419.458-1.842-1.172-2.178-.838v1.675l-2.067 6.3.895 1.238 3.66 1.172-.111 1.874 2.046 1.309 2.11.67.838 1.173 2.177.837 1.843 1.34 2.847-.335v3.183l.838 2.847 1.584 1.494-.58 2.526-1.46.819-2.56 1.024-.954 2.68-2.444-.122-2.464-1.05-1.638-.324-1.47-1.336-3.029-.522-1.368.895-1.563 1.785-1.34-1.507-1.843-.335h-1.842L749 445.585l-.543-1.761-1.568-1.2-1.112-1.227.167-3.182-.837-1.508-1.094-.748-1.197.973-1.73 1.115.927.927-.8 2.926.535 1.04-.943 2.178-.198 1.811-3.853-.837-2.073-1.906-2.649-.303.2 2.158 2.748 12.473-3.274 1.644 1.53 1.177 2.594 3.177 2.431 4.36-1.678.836-2.042.168-2.623 1.517-2.055-2.65-.808-2.217-6.814-3.52-2.763-.503-3.518-3.852 3.183-7.203-3.32-8.274-4.218-19.826-3.575-3.504-6.278-3.235 9.518-4.86 4.72-7.87 4.187-9.548 5.38-3.799 2.03-2.734 4.887 1.675.099 3.015 5.744 5.29 1.961 3.056.138 3.545 2.68-.503v-1.005l1.412-.582 1.394-.925 1.047-.838 1.257-1.005 1.423-.837.927-.927.246-1.545 1.466-.543.658-1.4.85-.778 1.828-.391 2.18-.402 1.686.793 5.235-.503 1.25 2.574.783 4.34-.456 2.451.12 2.03 1.006 1.507 2.146.869 2.209.06-1 2.914-.187 2.644-1.493 2.558-.67 2.345-1.005 2.345-1.54 2.042-1.81-.702z"/>
  <path id="0037000" d="m894.864 391.147.503-1.675-1.843-2.512.502-2.848-.837-1.34-.335-2.68 1.843-2.01-1.675-.168.837-1.005 3.923.08 2.975.393 1.767-1.965 3.06-1.69-1.172-1.508.335-2.68-1.508-1.507-1.842-7.036 1.162-2.355 1.685-2.67.168-3.182-2.56-.502-3.98-4.355-3.78-1.172-2.25 2.68-4.013-5.697 1.005-1.842 1.34-.335 1.005-1.256-1.34-.587.663-1.339.167-1.675.335-1.266-.998-3.258v-2.345l2.68-1.507 1.34-2.764-.334-3.35-1.173-1.172-2.009-2.262-1.844.168.762-2.65-2.604.472-2.855-.166-5.36.837-2.848 1.173-3.069-1.331-2.048.087-.53-3.719.892-2.358-1.06-2.506 3.652-2.47.125 1.682 2.547.563.642-2.457 1.62-1.395-3.601.335 1.675-1.005 1.34-2.262 2.345-2.26 9.715-.839 6.088-1.62-1.397-2.567 1.269-.59-.348-1.253 3.769.335-.67 2.178 1.172 1.842 1.826.336 2.402-.503 2.187 4.03 2.504 1.833 2.9-.335 2.42-.503 2.68-1.005 1.423-2.178 1.927-.67 1.59-1.842 2.095-.335 1.842-1.173 2.345-.167 2.403-.28 5.135-2.903 3.157-1.349 1.63 2.231 2.035 3.458 1.721 3.7 1.024 3.65 2.57-.193 3.847-1.86 1.94-1.764.837 2.01.67 1.424.335 1.591-.67 1.843-1.843.67-1.842 1.675-.168 2.512 1.005 2.429-1.59 1.927-2.597.67-1.508 2.512.335 2.68.67 1.173.838.167.502 2.01 2.01 1.843 2.01 1.591 1.676 1.76 1.842 1.674 1.508 1.507v3.015l2.345.336 1.675 2.512.98 5.35 1.63 6.993 2.75 4.24.67 4.356 2.178 1.005 3.35-.168 3.098.503 2.095-.168 2.177.838.838 2.177-.335 2.931v2.262l-2.68 1.005-2.01 2.512-.922 1.676.419 2.68.67 2.177 2.988-1.19 1.367 2.363-.502 2.01.837 1.34 1.173 1.172.335 1.508 1.675 1.005 1.256 2.178.921 1.34 1.173.837 1.172 1.005 1.675 2.178-.775 3.353-.023 3.904.296 2.96-2.01 4.02.177 3.528 3.264 2.766 1.417 3.925.837 4.355 2.513 5.192 2.177 3.35.278 5.81-1.953 4.743-2.96 2.57-1 4.048 1.782 1.088.168 2.01-2.261.67-.754.837 1.508 1.926-1.005 1.76.167 1.674-.838 1.34-1.842 1.34-2.01.335h-1.005l-.838 1.34-2.01.67-1.172 2.178-1.508 2.093-.167 1.425-1.005 1.005-3.225.937-.135-3.282-2.313-1.408-.367-2.277 3.182-5.193 1.173-3.35 2.178-2.345-2.659-1.742-.692 1.91-2.345.335.634-2.098-1.323.107-1.923-.89-3.474 1.875-1.084 1.943-2.713 1.743-2.569.67-2.623-.67-2.42 1.507-1.256 2.177-2.68.168-1.675-2.848-4.858 4.69-1.797-2.025-2.055-.32-1.686-1.852-3.005.01-1.842-.67-2.68.837-3.183-.502-1.34-.838-3.35-4.522-1.759-.335-2.094-3.434 1.34-2.932 2.01-1.842-.167-1.173-1.843-.502-.502-2.178 1.117-2.737 1.228-2.79 1.842-.838.148-3.538-2.493-2.325-2.177-2.093-.503-1.76.16-3.201 1.006-2.492-1.173-3.11-1.34-.408-3.015.502-2.178-1.172-.67-1.34-2.542-2.1 1.49-1.86-1.125-1.568.502-2.848-2.03-.837-1.508.837-1.99-.837.9-1.431-2.575-2.087-1.507-3.182-2.178-2.848.804-2.647-2.07-.703-2.084 2.848-3.012.338z"/>
  <path id="0038000" d="m774.267 275.233 3.183-.67 2.877-.836 2.315-.169 2.3-2.588 2.558-2.102 3.685-.838 1.577 2.017 9.812-.058 1.007 2.9 2.887-1.173h2.138l2.178 1.005-.335 3.03-.838 2.832-1.508 3.055L811 283.49l3.134.788 3.015 1.34.502 4.228 1.173 5.655L821 297.68l-.502 2.01-.838 1.507-.837.838-1.005.67-1.173 1.508-1.507 1.005-2.559 3.493-17.265 26.975-.405 2.363 1.058 2.726-1.768 3.471-.015 2.347-.308.819-8.13-3.034-2.77-1.971-.168-3.078-.503-1.087-1.767.982-1.918-.526-1.675-.144-2.033.335-2.657 3.373-1.34.93-.167 2.227-3.015.67-2.512-.67-2.705 1.364-2.257 1.65-4.084 1.173-8.79-.167-5.615.335-2.01 2.066.43 6.034-1.707 4.63-1.763 3.877-2.305 1.988-6.485 3.516-.398-4.188-.134-2.294-2.044-1.893-6.533 4.02-3.015-5.863 1.675-.838-1.507-2.847-3.303-.168-2.56 1.005-2.513-3.015-2.345.335-3.278 1.909-3.386 1.8-2.549 2.656-2.68 1.843-2.345-1.675.168-2.848-3.35-.502-1.676-5.863-3.517 2.01.167 2.178-3.182 2.01-.008-3.188-3.007-.33-.168-2.68h2.345l2.246-3.123-1.228-2.151-1.87-1.767-3.49-.326-2.458.056-2.735-.894-2.262-1.34-1.59-1.842-.168-3.352-1.675-3.684.49-1.677 3.35-4.356-.624-3.592-1.386-3.275-2.668-.835-5.695-5.193-1.173-2.177-4.187 1.842 2.5 2.845-2.835 4.693 1.13 3.637-6.323 1.723-2.345-.837-.196-3.142-3.145-.386-3.862-3.843-2.68-1.172-3.685.335-3.006 1.665-6.722-3.343-.06-3.824-.43-2.2-.687-1.022-2.115-1.826.385-.982-.096-2.369 2.178-.502 1.356-.486.989-.017 1.415-1.34 1.767.503.359-.91-1.364-1.297-1.356-2.132-2.145-1.038.319-1.826 1.507-2.345 1.675-1.964-.167-1.889-.503-1.842-1.34-1.34-.032-1.875-1.262-2.648.122-2.345-.335-2.68-2.345-1.34-2.162.151.977-.826-.009-2.65 1.865-.531 6.868 3.852 1.34 1.005 2.486-.167 3.209-.67 1.675-1.843 1.843-1.507 1.172.335-1.005 2.177.335 1.34-1.005 1.244.67 2.512 2.178-.238 5.328-3.328 2.712-2.702 1.508-3.015 2.847 1.005 2.68 3.685 2.164 1.003 1.38-1.842 2.01-.838 1.97.335 1.843 2.449.67 1.069 1.34 2.385 3.015-.04 2.01.335 1.933-1.422 2.59-1.426 1.508-2.847-.734-3.35-.271-1.843-2.086-1.461-2.772-.15.837-2.577-.167-3.35.67-2.512-.154-1.674 1.34-2.847.503-3.588 1.34-3.633 2.583-2.16 3.112.67 3.015 1.173 2.345 2.513 3.183.837 3.182-.67.168-3.015 2.345-.167 4.02 1.842.767 1.09 1.565 1.086 1.675-.168.941-1.172 2.104-.837h2.345l1.005-.167 1.005.167 1.005.503.975-2.681 1.508.167 1.507-.167 3.518 1.507 1.005-.502 4.167 1.173 2.198-1.006.838-1.005.837-.502.67-1.173.828 3.45 1.685 3.083 1.842 2.345 3.548 3.686 2.768-.867 2.508-1.059 3.602-3.434 2.256-.106 2.112 1.627 3.14.32 1.34 2.346 2.177 1.842 3.35 3.853v3.956l1.508 5.09.838 3.014 1.172 2.808.168 3.557 3.015-.837 4.69-3.518z"/>
  <path id="0039000" d="m406.975 282.399 4.315-4.151 1.005-.335 4.35-.364-.028 1.297-1.688.486 2.899 2.268-1.688 1.675-5.026 1.842.85.838-.458.682-2.221 1.495.167 1.005 2.513 2.01 1.675-.335 1.186 1.005 2.332.657 2.023-.154 1.727.335.94 1.881.502 1.636 4.201.838.825 1.005-1.676 7.061-.945-.372-1.728 3.36-2.152 2.46-3.381 1.397-2.408-1.142-2.115-1.036-2.178 2.345-2.01-1.675-4.02 2.848-3.494-.061-7.568 9.27-5.102-3.822-2.262.14.838 2.848-1.677 2.006-2.095-1.64-1.531-1.806-.923-1.61-1.34-.845-1.48-2.131-.502-3.414-1.479-2.99-5.725-3.99-2.25-.792-1.436-2.557-4.355 1.005-.67-2.178-7.198.412-.814-.814-4.216.57-.638-3.191-.79-5.875-.084-.818 5.025 1.34.503-.502 2.244 1.015 2.45.325h2.178l2.512-.168 2.341-3.853 1.177-.334 1.503.67.335 1.507.67.503 5.086-.127 1.447-2.219 1.005-.167 2.513.502 1.75-.5 1.767-1.51h2.68l1.843-.837.295-.871-1.296-3.149 3.35-.335 1.504 3.685 2.165-.134 3.438-1.506 6.607-1.749 1.659 1.073z"/>
  <path id="0040000" d="m486.337 304.332-.723-.45.092-.58.631-.927-1.472-1.305-.538-.035.11-.335-.057-.335-.776-1.173.22-.612 1.477-.732.866 1.34 1.422-1.255.895.417 4.226-.983.827 1.992 2.316 2.01 3.196.184 15.594-2.696.59-2.918 2.928-.6 2.095-.923 2.5-2.618 2.822-1.982 2.633.33 2.664.687 2.161.788 4.1 1.205 1.46-2.01 2.01-1.34h2.56l1.46-2.345 1.34.168 1.66 1.993 2.49 1.193 1.881-1.846 2.01-.838 3.015 1.34 1.843.41 2.345-1.75 2.68-.167 2.848-1.005 2.161.351 2.529-.686 1.34.837 1.34.168 2.559.837.791.335 2.753-.17 3.28 2.01 2.93.418-.586-2.094.267-1.892.069-2.295 2.512-.67.67-1.173-.167-1.076 2.178-1.27 1.004-2.177 2.39-.335 2.902-.216 1.827 2.144 2.43 4.605v2.01l.5 1.344 1.34.67 1.007 1.001 1.842-.67h1.005l.335-1.578 1.171-.93.989-1.66.353-2.03 2.848-1.507.35-2.66-2.53-1.021-1.005-.67.838-1.508 1.962-.18 1.755.612 2.46-2.416.01 2.649-.978.826 2.161-.151 2.346 1.34.335 2.68-.122 2.345 1.261 2.648.033 1.875 1.34 1.34.503 1.842.167 1.89-1.675 1.963-1.507 2.345-.32 1.826 2.146 1.038 1.356 2.133 1.364 1.296-.359.91-1.767-.503-1.415 1.34-.99.017-1.356.486-2.177.502.095 2.37-.384.98 2.115 1.827.686 1.021.431 2.201.06 3.824-1.83 2.013-4.064 6.086-3.61 2.558-2.2-.092-4.616 4.513-2.596-1.842-3.685-.168 1.945 1.098 1.238 1.917-6.198-1.842-2.847.67-2.178 2.68-2.68 1.843-1.508 1.845 3.185.5 3.516 1.259-.168 2.593-1.005 2.345-.502 2.345-5.36-.167-2.513-2.01-3.35-1.843.728 2.975-1.882-.284-2.867-1.348h-2.513l-.237-2.582-3.472-1.637-2.654-2.518-1.342.537-3.518-.336-3.517 1.006-1.508 1.342 2.178 4.355 2.512.168-1.268 1.866-1.547 1.954-2.696.184-1.692 1.523 1.173 2.82-1.173 9.24 2.48 1.643 1.038 3.048-1.675 1.675.838 1.337 2.668-1.55.246 4.692-11.26 2.416-7.899 1.81h-2.01l-3.015 1.675-3.685.167-.674-.208-4.69 1.386-3.685 2.01-2.162 1.994-2.621 1.357h-2.253l-3.182-1.34-4.52 2.171-2.452-4.187.778-3.853 5.367-1.012-2.687-3.51-3.02.34 1.173-2.345-1.243-.535-2.107.535-2.847-.502-2.444-2.646-1.238-2.996-1.675-5.754-.358-4.092 1.52-2.274 6.544-.67-.67-7.035-1.795-2.25-6.602.58-4.405.354-1.772-1.867-.334-3.849.837-3.745-.502-1.28 1.07-1.202-.139-1.693.744-2.13-.622-1.162.454-2.764-.502-1.1-2.345-1.34.502-1.232-1.172-.275-4.75-3.685-1.672-3.387-1.451-1.136-2.014-.667.003-1.507-.503-.648.503-1.75.502-.617.388-.838.727-.335.18-1.386-.625-1.514-.555-.618-.744-.462-.566-.61-.653-1.78.226-.665.785-.335 1.172.67h1.728l.998.548.29.562.502.732-.168-.938.639-.402.701.494.207.59 1.19.591.11.829-.114.511.115.278-.675.052-.335-.827.005.832.907 1.005 1.999-.13z"/>
  <path id="0041000" d="m417.326 334.869 2.75-1.242.768.66v1.42l-2.379 1.356.27.919 2.236.404 1.468 2.019 1.143.159 1.026-.511-.877-.16-1.212-.826.67-1.183 1.507-.335.335 3.35-.837.896.837.946 1.37.168 12.894-1.006 1.39.092-.152 1.675 2.39.666 1.539-.423 1.599-.091.913-.136.503.287.502.778 1.246.167 1.078 1.378.691 2.304-1.603 1.675-5.997 1.144-1.277-1.646-2.687 2.673 1.012 1.514-.168 1.675-1.689 1.689-1.159-1.186-.787-.006-1.193.373-.964-.698-.907.404-2.01-1.074.167-1.417-1.132-3.273-1.774 1.842-2.79-1.522-.67-.934-1.675-.06.167 1.173-1.172-1.507-.67 1.678-3.015-.837-1.676-2.684 1.006-1.839-2.346-2.348.157-2.306-8.866.969-1.342-3.688.449-2.346-1.117.171-1.508 2.01-6.032-.17-1.618.837-1.395.338.167 2.513-1.005.67-.273-1.192-.23-1.488-.67-1.173-1.735 2.682-1.782 1.674-.39-1.511-6.645-3.18 2.345-7.035h-1.34l2.343-7.542 1.677-2.006-.838-2.848 2.262-.14 5.102 3.821 7.568-9.269 3.494.06 4.02-2.847 2.01 1.675 2.178-2.345 4.523 2.178 3.38-1.397 2.153-2.46 1.728-3.36.945.372 4.859-1.029v.66l-.837 1.282.445 1.52-.543.964-.14 1.172.29 1.543 1.455 2.408 3.881 2.15-.433 1.94.685.85-.616 1.09.362.995-5.387 7.547.503.898-.516 2.787h-2.057l-3.47-1.005h-1.568l-.213 1.262-1.187.58-3.275.672z"/>
  <path id="0042000" d="m848.12 476.297-1.34 1.62 1.02 1.668.153 4.25 2.177 4.131-2.82.312-.865-.814-2.486-.501-.167 1.34-.503.837-1.703-.597-1.144.43-3.188 3.939-4.853 2.426-1.507.025-.335 1.65-2.538.838-.504-.17-5.26.944-.576-1.78-1.675-2.01-2.014-4.189-2.676-4.554.751-3.824-1.594-1.336-1.339 1.004h-1.675l-2.073 2.421-1.024-2.089-2.427-1.67-4.862 4.857-2.01 1.506-2.843 1.007-2.048-.639-2.977.136-1.508-1.13-1.843-4.23-6.786-1.503-1.421 2.676-1.812.031-2.209-1.874-2.764-.318-1.46-1.732.443-3.39-2.534-1.913-1.896 1.656.168 3.853 1.34 3.35-3.075.658-3.626-.522-.398-3.723-1.11-5.458-4.35-4.354-1.78-1.067-4.251 4.25-4.293-4.795-2.407-1.905-2.251-.262-3.11 3.11-1.005-1.843-1.426-2.518-2.594-3.177-1.53-1.177 3.274-1.644-1.042-4.686-1.707-7.787-.199-2.158 2.65.303 2.072 1.906 3.853.837.198-1.811.943-2.178-.536-1.04.8-2.926-.926-.927 2.927-2.088 1.094.748.837 1.508-.167 3.182 1.112 1.227 1.568 1.2.543 1.761 1.467 1.173h1.842l1.843.335 1.34 1.507 1.563-1.785 1.368-.895 3.03.522 1.47 1.336 1.637.324 2.464 1.05 2.444.122.955-2.68 2.559-1.024 1.46-.819.58-2.526-1.584-1.494-.838-2.847V434.7l-2.847.335-1.843-1.34-2.177-.837-.838-1.173-2.11-.67-2.046-1.309.11-1.874-3.66-1.172-.894-1.238 2.067-6.3v-1.675l2.178.838 1.842 1.172 1.675 1.508 1.812.701 1.539-2.041 1.005-2.346.67-2.345 1.493-2.558.186-2.644 1-2.913-2.208-.061-2.146-.869-1.005-1.507-.121-2.03.456-2.451-.783-4.34 8.153-.895-.867-3.22-1.793 1.613-.349-1.546 3.668-10.08 3.4-.252 6.727-1.46 2.436.06 1.34 1.363 1.34.96.861-2.01-.167-4.356 4.318.167.67 2.345 5.454 2.01 1.079 3.685-3.685 1.026-2.678 1.986 2.571.84 1.447 2.68 2.345.41 2.92-.355 1.878 1.07.897 2.728 4.355.503 3.207-.837 1.873 1.553 2.675-.883.006 1.979.471 2.209-.553 1.005-1.625-.503-2.369 4.522-.335 2.345.67 2.345-2.825 1.734-.173 2.562 2.17 1.781 3.035 1.715 1.168 2.594 2.177 1.34.335 2.848 2.45 2.115.398 3.245 2.01 1.675.502 2.01-2.01 2.178-2.01-1.34-2.345-.335-.517 2.323 1.02 2.107-.503 2.438 2.203 1.005 7.705 7.537-3.025 4.166 1.133 1.194-.67 2.01 1.434.502 1.246-1.005.168 1.173 3.517 3.182-1.675 1.434.729 1.658 2.287 2.771.335 3.015 1.842 1.675 5.217-1.004z"/>
  <path id="0043000" d="m790.705 375.74.312-1.006-2.346-1.507-.167-1.843 1.005-1.675-.693-1.005 1.26-1.74 1.94-.437 3.379-1.508.967-1.082-.408-1.813-1.448-1.321.028-1.647-.605-2.075 2.266-3.286-1.66-1.217v-1.843l-.67-1.317.012-2.007.308-.82.015-2.346 1.768-3.471-1.058-2.726.405-2.363 3.65-5.566 13.615-21.41 2.209.697 3.517 2.177.409 2.848 1.374-2.56 2.07-1.795 2.579.728 1.776 2.287 1.508 2.01 4.522.168-.258-3.244 3.393-.059 3.398-.718 1.909 1.91 3.86-2.077.596 1.843 1.843 1.005 1.32 2.01 5.513.218 5.275-.554 4.523.837 2.01 1.173 4.718-.238 2.048-.087 3.07 1.33 2.847-1.172 5.36-.837 2.855.166 2.604-.472-.762 2.65 1.844-.168 3.182 3.435.335 3.35-1.342 2.763-2.679 1.507v2.345l.998 3.258-.335 1.266-.167 1.675-.663 1.34 1.34.586-1.005 1.256-1.34.335-1.005 1.842 4.013 5.697 2.25-2.68 3.78 1.172 3.98 4.355 2.56.502-.168 3.182-1.685 2.67-1.162 2.355 1.842 7.036 1.508 1.508-.335 2.68 1.173 1.507-3.061 1.69-1.767 1.965-2.975-.393-3.923-.08-.837 1.005 1.675.168-1.843 2.01.335 2.68.837 1.34-.502 2.848 1.843 2.512-.503 1.675 1 3.355 3.013-.338 2.084-2.848 2.07.703-.804 2.647 2.178 2.848 1.507 3.182 2.574 2.087-.899 1.431 1.99.838 1.508-.838 2.03.838-.502 2.847 1.124 1.567-1.49 1.86 2.543 2.1.67 1.34 2.178 1.173 3.015-.502 1.34.408 1.173 3.11-1.005 2.492-.16 3.202.502 1.759 4.67 4.419-.148 3.537-1.842.838-2.345 5.527.502 2.178 1.843.502.167 1.173-2.01 1.842-1.34 2.932-1.192-1.6-2-1.499-2.848 2.01-3.18.838-3.35.67-2.68-1.172-2.68-1.173-1.152-2.68-.188 3.469-3.015 2.227-4.082 1.933-4.126-.76-1.843 2.397 3.015 1.12-1.413 2.847-2.44-.167-.67.837-1.098.335.764 1.173-1.508-1.005-1.675.837h-1.581l.408-1.172-1.675-.335-3.015-.168-2.406.244-2.451.594-3.016 1.842h-2.01l-3.256.503-2.104-1.173-2.68-.167-2.68.167-2.01.335-2.345.02-2.01-1.695-2.01 1.675v3.016l-2.01-.168-2.178.503.335 2.345-1.005-1.508-1.508.409.168 1.266 1.34 2.325-1.34.02-5.193 1.005-1.842-1.675-.335-3.015-2.287-2.771-.729-1.658 1.675-1.434-1.89-1.615-1.627-1.567-.168-1.173-1.246 1.005-1.434-.502.67-2.01-1.133-1.194 3.025-4.166-7.705-7.537-2.203-1.005.503-2.438-1.02-2.107.517-2.323 2.345.335 2.01 1.34 2.01-2.178-.502-2.01-2.01-1.675-.398-3.245-2.45-2.115-.335-2.848-2.177-1.34-1.168-2.594-3.035-1.715-2.17-1.781.173-2.562 2.825-1.734-.67-2.345.335-2.345 2.37-4.522 1.624.503.553-1.005-.471-2.21-.006-1.978-2.675.883-1.873-1.553-3.207.837-4.355-.503-.897-2.728-1.878-1.07-2.92.354-2.345-.408-1.447-2.68-2.57-.84 2.677-1.987 3.685-1.026-1.079-3.685-2.774-1.005-2.68-1.005-.67-2.345zm87.41 7.2-.195-.33-1.79.523-.077-1.314.948-.219.492-.826-.384-.18v-1.112l-.272-.395-1.068.168.168.837-2.094-.54-.38-.504.171-1.175-1.215-.126-.262.766-.609.91-.79.415-.41-.222-.296-.521-1.82.744.133.722.537.536-.222.665-.27 1.118.364 1.607.416.414.424-.158-.003.796-.498.89-.546.472-.088.682.255.573-.54.412.156.57.475-.259.73.368h.458l.564-.277.614.458.379.944 1.352 1.446v.802l.513-.319.803-.982.024-1.295.502-1.674 1.005-.349.268-.55.506-.334.566-.084.503-1.58h-.933l-.24-1.087.65-.727.792-.108z"/>
  <path id="0044000" d="m491.192 250.946.837.335-1.842 1.005-.676 1.162 1.513.01 1.005.866.335 1.312-1.254.588 1.456.887 1.391 1.291 1.97.968 5.148-.886 2.54 4.336 2.15 5.212-1.005.67.502.958.987.382 1.359 1.172.67.047.837.791 1.173.502.67 1.508 1.258.923 1.068.417h.689l.884-.335 1.898-.335h1.219l2.472-.616 2.07 1.621 1.91.394 2.017.444.26 1.934-.167 2.122.562 2.86-.73 1.58-.79 1.554-1.052 1.34-1.616 1.06.732 1.118.952.362-1.839 1.293-2.499 2.618-2.095.923-2.929.6-.59 2.914-15.593 2.7-3.196-.184-2.316-2.01-.827-1.992-4.226.983-.895-.417-1.422 1.255-.866-1.34-1.476.732-1.503-.058-.454-.125-1.23.456-1.172-.168-1.06-1.005.305-.42h-1.17l1.59-1.925-2.298-2.177-6.809 1.292-1.702.051-1 .087-.918.249-.613.502-.265.63.037 1.376-.558.638-.779.424-.843 1.125-.808-.222-.804-.453-.676-.568.422-.89.867-.72.618-1.07-.279-.437-.775-.335-2.899-.507-7.892-.167.335 1.34-1.172.335.502 1.59-.107.759 2.623 5.862.167.886.613.454.184.63-.462.208-.3.331-3.886-3.015-.335-1.508-1.733-1.566.058-1.114.433-1.704.233-1.915-.168-2.076.053-1.684-.138-1.751.588-1.255 1.176-2.01 1.189-1.428 1.382 1.37.445-1.617 1.614-.168.911.168 1.323-.67 1.293-1.29 1.894-.566-.348-1.494-.825-1.34-1.546-2.513-1.469-.67-1.122-.748-.385-1.765v-.85l-1.534-1.327-2.026-.238-1.968-.6-2.345-.502-1.675-.85-1.566-1.554-.541-2.137.6-1.49-1.186-1.172-.49-2.19-4.156-.466.05-.277 8.782-4.097 2.825 1.672 1.328 5.639.915.257.642.3 2.459 1.454 4.202 1.968.374-.834.837-.41.335-.854.396.123.61-.733.334-.79.335-.092.503-.837v-.945l2.345-1.4.233-1.137.437-.797 2.01.929.838-.124.67-.714 1.02-.502 1.113-.335 1.217-.26.383-.578 2.632-1.172 1.053.502 2.29-.677.434-.495.41-.946.845-.401.36-.998 1.59-.952 2.562-2.064 1.991-2.01 3.528 2.34z"/>
  <path id="0045000" d="m453.84 306.227.462-.208-.184-.63-.613-.454-.167-.886-2.623-5.862.107-.759-.502-1.59 1.172-.335-.335-1.34 7.892.167.922.15 1.073.19.904.167.775.335.28.437-.62 1.07-.866.72-.422.89.676.568.804.453.808.222.34-.508.503-.617.78-.424.56-.634-.04-1.38.265-.63.613-.502.919-.249 1.003-.086 1.698-.052 6.809-1.292 2.298 2.177-1.59 1.925h1.17l-.305.42 1.06 1.005 1.173.168 1.23-.456.453.125 1.503.058-.22.612.775 1.173.057.335-.11.335.538.035 1.472 1.305-.63.926-.093.581.723.45-1.114 1.43-1.999.13-.907-1.005-.005-.832.335.827.675-.052-.114-.278.114-.511-.11-.829-1.19-.591-.207-.59-.67-.494-.67.402.167.938-.502-.732-.29-.562-.997-.548h-1.728l-1.173-.67-.785.335-.225.664.653 1.781.565.61.744.462.556.618.624 1.514-.18 1.386-.727.335-.387.838-.503.617-.502 1.75.502.648-.003 1.507-1.398 1.071-3.681.598-4.466-.496-1.07-.416-3.285-.59v1.508l-.785.335-1.058.838-.837.502-.832.497-.9.508-.883.387-.907.283-.914.087-.756-.317-1.523-2.468-1.874-.128-2.298.311-1-.997-.34-1.576-1.005-1.28-3.685-3.852-.502-1.34.97-2.01 1.017-1.403 1.797 1.506 1.994 1.405 2.454 1.83 1.708.906 5.483.444-.722-.92-2.139-1.09-1.306-1.005z"/>
  <path id="0046000" d="m243.786 380.093-.08 4.26.583 2.272-.67 3.603-1.675 1.758 1.172 2.765-1.34 3.265-1.76 1.172 1.593 1.173 2.021.491 1.948 1.912-.954 2.79.67 2.68-1.843.837-.728 1.625-.11 2.898 1.567 2.123 5.938.912 5.561 4.502 3.938.503 2.93 1.842 2.68-1.842 1.34.167 2.43 1.843-1.175 3.35-3.721 1.492-3.732.686-1.34.67-2.177.335-3.082-.255-4.098-.423-4.713-.997-2.848-.335-2.01 1.425-1.508 2.01-1.675 1.087-2.345.168-1.842-2.01-2.345-.67-1.34-1.508-1.843-2.345-2.263-1.005-2.595-1.172-2.01-.335-2.68-.168-2.513-1.005-2.68-.167-2.68-.838-2.01-1.34-2.01-.503-2.68-.167-2.095-1.508-3.098.335-2.263 1.675-2.68-.167-2.26 1.34-2.177-.67-2.345-1.005-1.675-1.675-2.848-.335-2.01 1.34-2.848.502-2.345.168-1.507-1.508-1.173-1.927-1.663-2.305-5.205.882-3.852-2.345-2.01-.752-1.173.585-1.172.167-1.173.168-1.843.587-.67.25-1.507-.167-.838 1.005h-1.592l-.585.335-1.34-1.508-2.01-.335-1.173 2.345-2.178.083-.502 1.76-.838 1.842-3.352.333-1.173-4.355-2.462-1.675a85.946 85.946 0 0 1 7.823-1.675c1.132-1.021 1.907-2.23 2.68-3.517l-2.513-2.848-3.066-1.508-1.457-1.34-.335-2.01.335-1.558-1.675-1.507.335-1.625.67-1.34 1.508-.67 1.192-1.507 3.23.573 3.12-1.243 1.84 2.682 2.178 1.005 1.845-2.85.67-3.014-1.508-2.848-3.517-.167-2.345-2.68.502-2.848 5.193-.335 9.213-1.675 2.679-2.012-2.847-5.465 1.005-3.243-1.675-1.843.335-2.68 1.506-1.004-2.178-2.01 1.005-1.842-1.457-4.956.287-1.914-1.34-2.269.543-1.905 3.812 1.997 1.005-1.843 2.848-1.172 1.34-1.097 2.512-5.101.426-2.952.914-.9-2.345-14.909 6.198.67 2.015-2.508-.172-3.05 5.291-3.881 3.528.317 1.901-1.69 1.34-3.426 3.015 1.173 1.675-2.01-.502-2.345-1.571-1.43-.104-2.088-1.508-.837h-.67l-1.172-1.005-1.675 1.005-2.27-.838-1.08-1.675.502-2.512 3.015-.762-.761-2.254.289-2.059 2.783.116 3.05 1.106 2.421 5.464 1.974.58 3.807 5.007 1.01-3.01 4.112.502.744-3.014v-1.843l2.515-1.676 3.013-2.176 3.69.837 3.848.838-.42 1.675-1.925 1.675-.335 2.177 1.172-.335-.008 3.02-1.164.498v1.757l-2.178 2.933.168 2.68 4.187 3.015 3.77-.335 3.183.168 2.428 1.172.837 3.104 3.603-.089 1.422 1.676-.67 2.177 3.85-.574 3.018.742 2.01 2.512 2.178-.925 3.35-.247 2.513-.418 2.345-.085.323 1.519 1.854 2.501 2.069 2.965.946 1.39.335 3.877-.502 2.489.167 2.68 1.008 2.68-.423 1.842-2.762.838 2.01 1.172-.502 4.02-2.345-.168.167 2.68-2.177.335.67 1.005 5.36-.501 1.76 6.532 2.595 3.014-2.848 1.677-.335 6.532-2.178.67-6.867-1.422.67 3.097-1.005 2.178 1.842 1.34.67 2.01 1.508 1.173-2.069.783-1.704-.711.17 1.603-1.59 1.005-2.177.67-1.508-2.178-.67-.167z"/>
  <path id="0047000" d="m470.086 187.8.67.335 1.174 3.183 1.34 2.013.335 2.595-1.006 5.777 2.01.167.431-1.654 3.42-.508.338.99 1.17-.168-.502-1.005 5.193-1.842 3.854-2.43 1.258.42 1.347-.67 1.749.836.218.964-.553.544 1.341 1.174-.838 1.339.108.899-.611 1.11.67.503 1.508-1.005 1.843 1.93.077 1.407 1.07 1.617 3.71 1.244.503 2.847-1.005 1.005.517 3.198 1.58 2.331 2.822-.274 1.283 2.16 1.671.456-1.44.846-1.574 1.5-1.193 1.75-5.342-.076.837 2.01.335 3.18 1.507 1.343 1.693-.427 1.825 1.432 2.561 1.054-.718 1.626.502 2.01.168 1.675h.167l-.335.838-.384 1.724-1.124 1.291-.988 1.71-3.867-1.543-1.999.23-2.024-.897-1.488-.006-2.95-.664-.92 1.008-.468 1.639-1.099 1.266-5.635 3.792-6.03-18.426-1.613.165-1.232-.67-.184.167-2.253-.67-2.15 1.005h-.941l-1.34.427-.335-.26-.168-.67-1.34.017-.502.227-.594.092-.244.259-1.874-1.264h-.897l-1.526-.393.277-1.542 1.673-2.25 2.345-2.848 2.216-3.594.631-1.181 1.006-2.26.335-1.34.502-1.258.67-2.598.168-1.517v-3.863l-.503-1.15-.167-1.52.167-3.448-1.172-.726.502-1.262v-4.266l.168-1.452z"/>
  <path id="0048000" d="m507.941 237.212-.167-1.675-.503-2.01.719-1.627-2.561-1.054-1.826-1.432-1.693.427-1.506-1.343-.335-3.18-.837-2.01 5.342.076 1.192-1.75 1.574-1.5 1.44-.846 2.177-1.005 1.675-1.676.164-1.841-1.838.504.334-2.347-2.189-8.31-.157-2.578-1.003-1.505-3.853-.335-1.005-4.858 3.01-.128.674-1.888 2.17.119.68-1.79 1.674-.333-1.005-1.173 1.675-1.507-2.178-10.386 3.921-1.123 1.44-2.076 1.94-2.227 1.075 2.411.167 2.848 8.653.627 3.743-.627.415 4.847 1.538 2.397.844 2.421 1.188 1.219-.134 1.342 3.903.763-1.223 1.415.003 1.842-2.18 2.178 2.01 1.006.837 1.004-.503 1.675 1.794-.119 1.037 2.037 3.538 2.604-.168 2.345-1.008.838.171 2.75-3.015 3.112.67 1.34-3.354 3.184 1.794 1.22 2.345.406 4.575 4.738 1.843 3.015.499 1.676-.41 2.648.04 2.192.964 2.513-.595 1.525-1.388-.049 3.064 4.236 4.187-.167 1.34-.838 2.106.35 2.198.932 2.732-.78 5.175 7.949 1.07.308 3.32 3.042-2.513.837-.855 1.6-2.122.252-1.06 2.433 3.017 3.178.668 2.01-.67 1.675 2.01.838-.499 2.415.838 2.01-1.843 2.442 1.651 2.657-1.557 1.266.405 1.772 1.67 1.549-.498 1.634.054 2.84.786 1.686-2.53.686-2.16-.351-2.848 1.005-2.68.167-2.346 1.75-1.842-.41-3.015-1.34-2.01.838-1.882 1.846-2.49-1.193-1.659-1.993-1.34-.168-1.46 2.345h-2.56l-2.01 1.34-1.461 2.01-4.1-1.205-2.16-.788-2.664-.687-2.633-.33-.984.69-.953-.363-.731-1.119 1.615-1.059 1.052-1.34 1.52-3.134-.562-2.86.168-2.122-.26-1.934-3.928-.838-2.07-1.62-2.471.615h-1.22l-1.897.335-.885.335h-.689l-1.068-.417-1.258-.923-.67-1.508-1.172-.502-.838-.791-.67-.047-1.359-1.172-.986-.382-.503-.958 1.006-.67-2.15-5.212-2.542-4.335-5.146.885-1.97-.968-1.392-1.291-1.456-.887 1.255-.588-.335-1.312-1.005-.865-1.513-.01.675-1.163 1.843-1.005-1.851-.675-3.528-2.34-1.993 2.011-.335-.67-.848-.336.358-1.011.995-.66 5.635-3.793 1.099-1.266.47-1.639.919-1.008 2.95.664 1.487.006 2.025.898 1.998-.23 3.868 1.541.988-1.709 1.124-1.291.383-1.724.335-.837z"/>
  <path id="0049000" d="m723.67 145.92 7.035-2.01 1.172-2.178-2.345-.168-.665-.665-.512-1.843-.33-1.177-2.178-.9 2.01-1.278-1.173-1.905 1.675-3.287 2.178-2.68-1.508-.733-1.842-.44-.67-.837 3.387-.211 5.55 1.84 8.819-1.127 3.182 7.37 1.34 5.026 5.528 2.177 3.01-.498-.33-2.14.67-1.55 1.675-.9.503-1.277.502 2.136.335 1.382.503 1.34.502 1.507 1.738.503.824-1.784.721-3.884 2.64-3.433 2.306-1.62 1.487-1.005.097-1.88 3.085-1.324 2.704.085 2.437-1.3-.18-2.86 2.114 1.608 2.873 1.187-2.41 2.977 2.952.167 1.236-3.182-.503-1.215 1.778.003 1.74-1.636 2.01.335 1.866 1.37-1.702 1.65-.839 1.666 2.01.837 1.34 2.68-.835 2.69 1.175 2.172-1.678 2.015-.667 2.843 1.675 1.675-1.667 1.423-2.981.252-1.445-.837-2.096 1.656-1.857 1.354-1.35.348-.5 4.52-1.118 1.39.113 3.97-1.675 6.234.003 2.806-3.022-1.5-4.854 1.337-2.178-.167-1.675-.67-1.507 1.34-1.337 2.507-2.75 1.897-6.59.785-1.852-1.373-.26-1.958-4.642 1.822-1.373-1.244-1.574 2.46 1.912 4.49.288 1.207-4.533.92-2.042.838-.053 3.24-5.007-.296-.606 2.115 2.382 1.786 1.239-1.446 1.046-1.004 2.68 4.69-11.558 3.853-7.524-2.09-3.325-.348 1.014 1.636 1.269.88-.688 2.034-3.95.472-.183 2.118 1.178 2.735-.446 1.68-4.304.262-3.452.649-3.265.145-2.496.546-2.16-.256-.52 1.094h-1.508l-.837.335-1.036-1.239-1.269-.435-1.38-.839-2.508 1.177-1.005 1.005-.634 1.17-1.34.837.837 1.675.503 1.675-.67 1.173-1.508.655-1.005-1.66-1.508.67-1.005.167-1.34-.167-1.172 1.507.167 2.294.503 1.96.725 1.337.815.821-2.226 1.462-2.178 2.512-2.75 1.675-6.463 2.68-2.66.316-1.695-.65-1.843.334-1.842-2.177-3.542-2.682-1.634-1.34-.854-.333-4.715 2.008-1.483.84-.573-1.34-1.437-.239-.335-2.442 1.675-5.863-1.34-2.345.813-2.64.386-2.72-2.372.045-1.842 2.803-2.345-1.675-2.513-1.508-1.384-.67-2.469.335-3.015 1.675-2.68 1.173-1.508-1.437-1.172.767-.355-3.331.187-1.36-1.172-1.004-2.178-1.173-1.005-2.345-2.01-1.243-.335-3.615-1.172-2.512-2.178-2.178-1.843-2.512 3.065-4.957 2.606-.573 4.02-1.675.524 1.675 2.18-.333.838-4.593 2.562-2.038.533-3.102 1.26-3.333 1.843-2.345.503-2.512-1.508-4.02 2.678-.502.335-1.842 2.016-2.683 2.171-1.338 1.508 1.173 2.512-1.34 1.005-1.508 3.015 1.003 2.994.167 3.346.666 4.046.007 3.926-.503 2.648.675-.804-1.378 1.579-.137.524 1.678-1.34 1.675 2.177 2.178 1.508-.503 2.177-2.178.787-2.613 1.391-2.077-2.01-1.842-.702-3.397.785-2.428 2.08-1.359 1.07-1.495 6.46-2.379 2.346.168 4.69-1.005 2.501 1.005 3.512-2.215 1.72.509 2.493 3.899 2.232.654 2.115-1.173h2.513l2.233 1.396 5.304-.726-2.971 3.01.166 2.011 1.8.173 2.01 1.507 1.523-1.85 2.33-.83.67.837 2.01-1.172 1.34.837-.167 1.507-1.675 1.173z"/>
  <path id="0051000" d="m179.315 150.012 3.686-2.48 2.156-.272 1.004.837 1.508-1.006-1.34-5.694-.167-5.55-.54-2.429-1.47-1.736-.838-2.345v-6.03l1.507-.839-3.517-6.198-2.01 2.179-.577-.02.747-2.493 1.337-.67-3.685-6.366 7.035-3.35 8.71-4.187 2.01-1.173 4.338-2.16 4.25-2.028 2.115-1.154 4.373-2.028 4.188-2.178 4.355-2.01 4.672-1.824 4.585-1.358 3.139-.503.502 1.551-1.842 4.48-.838 2.344-.67 2.724-.484 3.12-.186 3.042.502 7.326.652 2.866 1.359 5.21 1.842 4.69 3.685 6.198 4.505 5.51 7.22 6.55 6.515 4.003 1.843 1.507 2.042 1.082 3.169 3.459 2.01 1.173 1.005 1.842 1.507 1.675 5.696 8.878.67 2.345 4.522 5.025 8.04 4.69 1.34 2.01 1.825 1.657 4.709 1.693 2.21 1.24 4.657.268 1.508 1.675-.838 2.01.335 3.015 1.34 1.173-.167 2.724 1.005 1.966-3.853.67-1.992 2.494 2.327 12.581-3.182.503-1.322 1.992.15 2.363-1.323.987-2.698 1.904-.335 1.632-1.173 2.177-1.172.335-2.848 1.551-3.685.794-1.675 2.848-4.858 2.01.838 3.015-3.183 7.705-6.7-2.177-1.675-1.173-1.992.856-1.86-1.315-2.01 1.297-2.328-.018-1.023 2.53-2.68 1.005-.838 2.513-4.064 1.173-1.463-.168-2.178 1.34-5.863.67-2.199 1.413-2.156.597-.335 7.37 2.345 7.334-2.512 4.392-6.198-2.848-1.806 1.508-2.364.317 1.825.855-.67 2.178-3.296.222-2.935-2.802-2.993-1.273-2.773 1.942-4.08-1.44-8.714 1.508-1.384-5.695-2.134-1.347.103-2.916 2.373-1.432.204-2.892-.82-2.822-1.525-1.868-.402-3.004.085-3.132-2.196-1.19-2.345-.335-2.767-.67-2.178-1.675-2.257-1.173-1.34-2.01-1.508-1.507-.67-2.178 1.29-2.52-.77-1.518-2.028-1.155-1.675-2.01-1.172-1.507-3.183-.677v-1.5l2.178.335.167-1.34-.502-.67 1.172-2.518 1.173-1.344-.148-1.425 1.32.766 1.005 1.002 1.107-1.943-.27-2.411 1.017-1.727 1.508-.786.775-1.055.27-1.508 1.215-1.142 1.776-.985 3.5-.167 1.498-2.685-1.007.507-1.31-1.578 1.02-3.064-1.016-5.246-2.545-2.507.423-3.198 1.085-2.335-.89-6.539.052-1.827-.502-.675-1.005.84-1.345-.505-1.168-1.507v-1.677l-.502-2.513-6.868 2.85-8.376-2.01-6.385-4.616-.315-1.247 5.204-1.288 3.893-1.725 3.969-2.85 1.005-1.675-.842-1.34-1.523-1.38.04-2.063 1.329 1.098 2-.84 1.425-1.923z"/>
  <path id="0052000" d="m332.231 263.341 1.508.67 2.004.502 2.016.497 3.35.341 2.752.168h2.603l1.513 1.005.502 1.675.838.832.664 1.345.676 1.508.502 1.825.67 1.352.832 1.01.676.838 1.005.67.838 1 .335 1.172-1.676.508-2.276 1.078-5.43 1.768.307 2.542-.81 1.478-.167 1.73.5 1.62-.499 1.504.708-.5 1.883.317.424 3.03.367 2.845.638 3.191-2.645.462-2.715 1.38 2.847 17.756-4.684 3.685-7.711 1.173-1.34-1.312-.503-1.686-1.34-.52-5.527 6.192-1.804.375-1.38 1.139 1.137 1.973 2.55 2.717.67.837-1.676 4.69-1.987 1.34-3.568 4.038-2.485.675-4.171-2.535-3.481.053-1.843-.776-1.393 1.393-.665 1.34-.173 1.34.676 1.508-.485 1.412-2.572.319-1.974-.726-1.79-.785-2.261.046-1.31 1.403-.837.508h-1.837l-5.198-1.172-2.635.335-3.122-5.59-.938.23-1.317-.67-1.992 1.339H263.05l-.503 2.847-2.68-1.004-.335 2.847-3.685-.503.502-4.019-2.01-1.172 2.762-.838.423-1.842-1.008-2.68-.167-2.68.502-2.49-.335-3.876-4.869-6.856-.323-1.519-2.345.085-5.863.664-2.178.926-2.01-2.512-3.017-.742-3.85.574.67-2.177-1.423-1.676-3.603.089-.837-3.104-2.428-1.172-3.182-.168-3.77.335-4.188-3.015-.168-2.68 2.178-2.933V301.7l1.164-.498.008-3.02-1.172.335.335-2.177 1.924-1.675.42-1.675-7.537-1.675-3.014 2.176-.167-3.518-1.34-2.604 2.269-1.08 1.08-8.86 2.179-.78.837-3.258 1.915-2.705-.088-3.66 2.993 1.272 2.935 2.802 3.296-.222.67-2.178-1.825-.855 2.364-.317 1.806-1.508 6.198 2.848 2.512-4.392-2.345-7.334.335-7.37 2.156-.597 2.2-1.413 5.862-.67 2.178-1.34 1.464.168 4.063-1.173.838-2.513 2.68-1.005 1.023-2.53 2.327.018 2.01-1.297 1.847 1.298 2.006-.839 1.675 1.173 6.7 2.177 3.187-7.704-.842-3.016 4.858-2.01 1.675-2.848 3.685-.794 2.848-1.55 1.172-.336 1.173-2.177.335-1.632 4.02-2.891-.15-2.363 1.323-1.992 3.182-.503-2.327-12.581 1.992-2.495 3.853-.67 1.176 1.838.67 1.68.335 1.508.168 1.329.335 2.35.335 2.346.899 1.24.273 1.942-.502 1.982.335 1.698-.22.963.387 2.046.67 1.525.67 1.501.838 1.346.67 1.496.335 1.352.67 1.837.502 1.842.67 1.67.67 1.35.67 1.676.994 1.172-.49 1.167v2.329l-.336 2.177.335 2.356.168 2.172.167 2.652.503 1.71.837 1.015.67 1.173.832 1.173.843 1.172.838 1.34.952.952.89 1.053 1.005.843 1.005.837 1.33 1.005 1.183.838 1.005.837 1.173.67 1.507.67 1.318.91 1.865.598z"/>
  <path id="0053000" d="m723.67 140.057-2.01 1.172-.67-.837-2.33.83-1.523 1.85-2.01-1.507-1.801-.173-.166-2.01 2.972-3.01-5.305.725-2.233-1.396h-2.513l-2.115 1.173-2.232-.654-2.493-3.9-1.72-.508-3.512 2.215-2.501-1.005-4.69 1.005-2.345-.168-6.461 2.379-1.07 1.495-2.08 1.36-2.428.129-2.178 1.172-2.328.017-1.692-2.195 3.015-5.36 1.34-.502.02-6.494-2.051-1.213-4.858-1.173-1.34-1.173 2.177-.156 2.472.953 1.88-.496 3.145-2.437.376-1.046 1.09-.923 1.423-.082.461-1.802 1.423-.335.46-2.218 1.3-.964-.588-4.69 2.137-1.214-1.389-1.575-16.702-3.785.335-3.35-4.13-.855 1.993-9.657-1.634-.458-4.605 2.26-2.69.334-2.977 1.567-3.568.444-12.373-6.7-.964-2.305-10.929-6.462 3.015-3.317-.67-2.155-2.136-.878-1.716-.797-8-9.171 1.823-4.562 2.828 3.35 2.365-1.507.168-2.513 1.675.335 1.34-.838 1.34.503 1.172-.168 1.005-1.34 2.01.912 4.019 4.213 5.53 2.34 1.653-1.113-.503-1.34.838-3.517-.67-1.497 1.634-.796 1.046-3.559 4.188-5.695 7.037 4.371.59 2.82 4.098 7.047 4.869 1.675 2.445-1.805 1.858 4.191 4.396-1.38 4.001.924 2.657-.262 3.225-2.505 4.18 2.432 3.525-.087.503 3.015-4.424 16.396 1.874-.117 2.226 2.146 2.46-1.213 8.92 3.905v2.166l1.363 1.948 3.159.564 3.853 2.513.208 2.304-2.051 6.071 2.178.67 1.675 1.173.376 2.304 1.258 1.675 2.218.89v2.669l1.173 2.177-.503 1.675 1.173 1.34.126 1.214 3.56 6.011 1.53.983 2.783-.376.89 2.051 2.669 1.005.67.837 1.842.44 1.508.733-2.177 2.68-1.676 3.25 1.173 1.942-2.01 1.278 2.177.9.843 3.02.665.665 2.345.168-1.172 2.177-7.036 2.01-.502-2.345 1.675-1.173.167-1.507z"/>
  <path id="0054000" d="m605.934 26.49 6.529 4.558 3.775-.026.246 1.505 3.77-.428 1.76 1.835 2.096-1.568 1.422 3.357-1.34 2.995 7.705 3.183 1.808 3.584 6.546 3.45-1.046 3.558-1.634.796.67 1.497-.838 3.517.503 1.34-1.654 1.112-5.53-2.34-4.017-4.212-2.01-.912-1.006 1.34-1.172.168-1.34-.503-1.34.838-1.675-.335-.168 2.513-2.365 1.507-2.828-3.35-1.823 4.562 8 9.171 3.852 1.675.67 2.155-3.015 3.317 10.93 6.462.963 2.304 12.373 6.7 3.568-.443 2.976-1.567 2.691-.335 4.605-2.26 1.634.459-1.992 9.657 4.129.855-.335 3.35 16.702 3.785 1.389 1.575-2.137 1.214.588 4.69-1.3.964-.46 2.218-1.423.335-.461 1.802-1.422.082-1.09.923-.377 1.046-3.145 2.437-1.88.496-2.472-.953-2.177.156 1.34 1.173 4.858 1.173 2.05 1.213-.019 6.494-1.34.502-3.015 5.36 1.692 2.195 2.328-.017 2.178-1.173 2.428-.129-.785 2.428.702 3.397 2.01 1.842-1.39 2.077-.788 2.613-2.177 2.178-1.508.503-2.177-2.178 1.34-1.675-.524-1.678-1.579.137.804 1.378-2.648-.675-3.926.503-4.046-.007-3.346-.666-2.994-.167-3.015-1.002-1.005 1.507-2.512 1.34-1.508-1.172-2.17 1.337-2.017 2.683-.335 1.842-2.678.502-3.439.503-4.434.167-4.693 3.519-1.053 4.36-3.076.895-1.612-4.517-2.548-.32-4.776 3.1-2.513-.336-1.507-1.005h-.838l-1.675-.502-1.842 1.34 1.34 1.507-2.678 2.01 1.005 2.988.333 2.037-1.676 2.366-.112 2.135-4.91 1.026.67-2.177-2.964-1.507-.985-2.513-1.698 2.914-2.68.538-2.229-.437-1.675-3.015-4.855-2.786-1.675 2.786-2.759-1.33-1.096-3.527-2.332-2.957-3.51-1.894-.523-2.854.837-3.016-1.005-2.68-2.345-2.177-3.347 1.674-1.8-2.814 1.094-2.51-4.322-.67-1.005-.537.838-.837.335-2.513-3.519-3.184-.167-2.345-3.183-3.685-2.867-.335-4.932 1.005-3.424 1.843-3.014-2.847-.698-3.494 1.258-3.373-.56-2.346 1.172-1.843 3.015 1.099 2.882-2.139 2.01-2.345 1.473-3.315 3.538.167 2.157.168 1.608 2.97 2.58.547 1.434-1.172 1.966.525-.217-1.864-4.355-4.86 4.69-.334.335-1.528-.335-2.826 1.005-2.345-.181-2.387-3.336-3.065 2.882-6.875 1.472-1.745-2.71-3.792-.137-4.917-2.345-.502-2.01-1.843-2.362.335-1.749-2.952-2.757-1.495-1.675-1.918-2.724-.053-1.296.22v-2.68l-1.005-2.01-.595 2.68-1.415-1.34-3.686-1.173-1.34-8.376-.502-1.34-.168-2.847-.837-2.178.838-.853-.168-1.49-4.858-2.44-.502-6.698-1.843-9.456 15.336-9.403 5.994-.615 3.796-2.88 5.863-9.716 3.805-1.173 1.493-2.958 9.393.415 2.06-2.482 3.014 8.449.083 5.87 1.927 1.26-1.005 1.004 3.853 5.756 3.518 1.28 1.592-2.426.92-6.955-5.192-9.347 2.408-2.967 3.138.505 7.987 10.87 4.604.102 3.76 1.775 3.609 2.732.122 2.193-1.507.335z"/>
  <path id="0055000" d="m793.877 347.41-.013.858v1.15l.67 1.317v1.843l1.661 1.217-2.266 3.286.605 2.075-.028 1.647 1.448 1.321.408 1.813-.967 1.082-3.38 1.508-1.938.437-1.261 1.74.693 1.005-1.005 1.675.167 1.843 2.346 1.507-.312 1.005.167 4.355-.86 2.01-1.34-.959-1.34-1.363-2.437-.06-6.728 1.46-3.399.252-2.512-4.355-3.015 3.015-1.173-3.517 1.022-1.844.8-3.001.205-3.7-9.114-.334-6.129-.838-14.66-8.987-.431-6.034 2.01-2.066 6.699-.332 7.706.164 4.084-1.172 2.257-1.65 2.705-1.365 2.512.67 3.014-.667.168-2.23 1.34-.93 2.657-3.373 2.033-.335 1.675.144 1.918.526 1.767-.982.503 1.087.167 3.078 2.771 1.971z"/>
  <path id="0056000" d="m175.44 153.79-2 .84-1.33-1.1-.04 2.065 1.524 1.38.842 1.34-1.005 1.674-3.969 2.85-3.893 1.725-5.204 1.288.315 1.247 6.385 4.616 8.376 2.01 6.868-2.85.502 2.513v1.677l1.168 1.507 1.345.505 1.005-.84.502.675-.052 1.827.89 6.54-1.085 2.334-.423 3.198 2.545 2.507 1.016 5.246-1.02 3.064 1.31 1.578 1.007-.507-1.498 2.685-3.5.167-1.776.985-1.216 1.142-.269 1.508-.775 1.055-1.508.786-1.016 1.727.269 2.411-1.104 1.944-1.008-1.003-1.32-.766.148 1.425-1.173 1.344-1.172 2.518.502.67-.167 1.34-2.178-.335v1.5l3.183.677.335 1.508-.167 3.013-1.34 2.347.335 1.668-1.193 2.48.357 1.38-1.895 5.477-8.157 1.39.17 2.012-5.785.333-4.766-1.34-4.858-2.848-1.005 1.843-2.345 1.34-3.03.335-1.99 2.005-2.183-1-2.848-.335-1.842.335-.838.67-2.726-1.675-3.471-.502-1.34 2.01-4.523 2.345-2.286-1.104 1.28-2.246-1.34-2.178-5.518-.837-2.927-2.914-2.018-.12-1.434 2.867-5.005-2.887-4.03 1.109-.145 3.274-1.875.346-1.508 1.173-.167 1.17-.818.933-2.184-1.012-4.536 3.766-2.107-.097-1.574-.74-1.344.993.387 2.681-3.905 1.842 1.079 6.357-3.76 1.527 1.843 13.903-3.782 1.161.6 3.362-8.188 1.246-.188-.906.386-.792-1.39-2.565-3.816-2.86-1.545-.657-2.178-1.34 3.016-2.679 1.34-2.34.837-.675 1.843-4.185 1.673-2.515 2.347-6.526 1.173-6.7v-9.383l-.67-14.075 1.507-8.543.168-14.908 2.126-7.152 4.239-4.908 3.685-6.365 2.01-2.343 3.015-5.53 2.375 1.704.478 1.818.503.838-.399 1.236-1.115 1.272.335.335 1.27-1.49 2.59.563.16 1.262.94.322.24-1.176-.066-.853.62-.801.785-.283-.073-1.057.64-.901 1.056-.387.199.618-.375.654.39.849 1.17.335.672 1.34h1.173l.167-1.676-.831-3.072.67-3.958.664-.674 2.225-.33 4.452-1.912.022-1.134-.663-2.44-.167-2.324-.335-1.016-.838-.147-.271-.472.941-2.091-.075-2.424-.659-2.353-2.113.064-.341-2.35-1.006-.167 1.843-4.183 3.183-4.36 2.9-8.197.953-3.863.67-1.34 5.192-4.355 3.846-.838 10.055-3.015 4.165-.503 1.868.166 13.22-.333 9.556-3.183 11.06-5.528 8.543-4.188 3.685 6.365-1.337.671-.747 2.493.577.02 2.01-2.178 3.517 6.197-1.507.839v6.03l.838 2.345 1.47 1.737.54 2.428.167 5.55 1.038 3.026.302 2.669-1.508 1.005-1.004-.837-2.156.272-6.136 4.334z"/>
  <path id="0000000" d="m 573.43652,4.715332 -2.0581,2.4814453 -9.39258,-0.4145507 -1.49414,2.9575194 -3.80566,1.17334 -5.86231,9.714843 -3.79541,2.881348 -5.99414,0.615235 -15.33545,9.402832 -3.18311,-4.523438 -5.41406,1.353515 -3.2959,2.014161 -0.94629,3.583008 -3.62695,1.535156 -2.65576,1.788574 -3,-2.233887 -2.76856,1.290528 -2.23389,2.825683 -2.78027,-2.674804 -3.30615,-1.160157 -4.37988,2.535645 -3.28272,1.212891 -1.00342,3.172851 -6.45849,1.340332 -2.09326,3.536133 0.63574,2.620606 0.88037,5.065429 -4.15576,2.540039 -2.37744,-0.528809 -3.97559,-0.6958 -3.56103,-0.309082 -0.39404,2.126953 -0.44385,2.654297 -0.8379,3.257813 -0.62109,3.704589 0.11865,3.42334 1.00488,3.424802 0.167,2.84766 0.33545,3.350093 0.33545,4.205572 -0.33545,2.06103 v 3.28125 l -0.33545,1.675785 v 7.202628 l 1.17334,2.00977 0.83789,2.34521 0.83643,3.2754 0.6709,3.40137 0.16698,3.87597 1.17335,2.84766 1.00488,3.0498 -1.00488,2.98096 -0.83789,3.35009 -1.00488,2.77149 0.50244,3.06738 -0.16846,3.6504 -0.167,3.57568 1.34034,2.84765 0.50244,3.44239 0.33545,3.25781 v 3.36768 l 0.16699,3.68554 0.33545,4.46338 0.50244,3.76026 0.50244,3.81884 0.66943,3.3501 0.33546,3.95508 0.16698,4.28759 0.33546,6.33106 0.33691,1.72998 -0.16846,1.45166 v 4.26709 l -0.50244,1.25977 1.17334,0.72656 -0.16699,3.44824 0.16699,1.52051 0.50244,1.1499 v 3.86279 l -0.16699,1.51758 -0.6709,2.59717 -0.50244,1.2583 -0.33545,1.34033 -1.00488,2.25879 -0.63135,1.18213 -2.21631,3.59473 -2.34521,2.84766 -1.67139,2.25 h -0.002 l -0.50244,0.51856 -0.50245,0.57861 -0.51855,0.50243 -0.74121,0.75733 -0.91699,0.84228 -0.50244,0.57715 -0.51856,0.50245 -0.65479,0.51855 -0.66942,0.65478 -0.7837,0.61671 -0.55664,0.55517 -0.66943,0.42773 -0.67676,0.41748 -0.66357,0.51123 -0.6709,0.74561 -0.83643,0.42627 -0.50244,0.59473 -0.50244,0.59472 -0.5039,0.63721 -0.66944,1.09717 -0.50244,0.6709 -0.50245,0.7456 -0.50244,0.66944 -0.50976,0.50976 -0.51123,0.66357 -0.55371,0.56837 -0.77051,0.86279 -0.50244,0.57861 -0.50977,0.50831 -0.66357,0.51269 -0.56543,0.68554 -1.27588,0.98877 -0.83789,0.65479 -0.59473,0.66943 -0.83789,0.6709 -0.86572,0.62256 -0.77783,0.60938 -0.6416,0.60937 -0.82178,0.50244 -0.82032,0.59473 -0.83788,0.57861 -0.84522,0.50977 -0.83057,0.49511 -0.93603,0.68848 -1.08692,0.65185 -1.66113,0.83789 -1.34033,0.68263 -1.67578,0.8247 -1.84277,0.51563 -1.54541,0.65625 -1.80469,0.50244 -1.17188,0.67089 -1.84277,-1.00487 -0.16699,1.17187 0.89502,1.06348 -0.72803,1.78417 -0.85108,1.34034 -0.82323,1.01806 -1.00635,1.49414 -1.06202,1.06348 -1.45019,1.61719 -1.17188,1.00488 -1.50732,0.83643 -1.00635,0.83789 -2.17676,1.34033 -4.69189,2.84619 -1.6084,0.68115 -3.44384,1.49561 -3.49073,1.34033 -3.25049,1.07373 -5.45947,1.60694 -7.89991,1.67431 -4.64794,0.6709 h -3.94043 l -4.4502,-0.6709 -2.34521,-1.67431 -2.09033,-0.33546 -3.43652,-1.00488 -1.00489,-0.17139 -0.33545,-1.17333 -0.83789,-0.99903 -1.00489,-0.67089 -0.67529,-0.83643 -0.83203,-1.01074 -0.66943,-1.35206 -0.50244,-1.82519 -0.67676,-1.50733 -0.66357,-1.34619 -0.8379,-0.83202 -0.50244,-1.67433 -1.51318,-1.00488 h -2.60303 l -2.75097,-0.16845 -3.3501,-0.33984 -2.01563,-0.49659 -2.00536,-0.50391 -1.50733,-0.66943 -1.00488,-0.33545 -1.86622,-0.59766 -1.31689,-0.90966 -1.50732,-0.6709 -1.17188,-0.66944 -1.00635,-0.83788 -1.18359,-0.83789 -1.32862,-1.00489 -1.00488,-0.83789 -1.00488,-0.84228 -0.89062,-1.05323 -0.95216,-0.95215 -0.83788,-1.33886 -0.84229,-1.17334 -0.83203,-1.17188 -0.6709,-1.17334 -0.83642,-1.0166 -0.50244,-1.708 -0.16846,-2.65137 -0.167,-2.17236 -0.33544,-2.35694 0.33544,-2.17676 v -2.3291 l 0.49073,-1.16601 -0.99317,-1.17335 -0.67089,-1.67431 -0.66944,-1.35205 -0.66943,-1.66846 -0.50244,-1.84277 -0.6709,-1.83692 -0.33545,-1.35204 -0.66943,-1.49562 -0.83789,-1.34619 -0.66944,-1.50146 -0.6709,-1.5249 -0.38672,-2.04639 0.21973,-0.9624 -0.33545,-1.69775 0.50244,-1.98194 -0.27246,-1.94385 -0.89941,-1.23925 -0.33545,-2.34522 -0.33399,-2.34961 -0.16845,-1.33008 -0.33399,-1.50732 -0.67089,-1.68018 -1.17627,-1.83691 v -0.001 l -1.00489,-1.96436 0.16699,-2.72461 -1.33887,-1.17187 -0.33544,-3.01612 0.83789,-2.00976 -1.50733,-1.67432 -4.6582,-0.26807 -2.21045,-1.23925 -4.70801,-1.69336 -1.82519,-1.65674 -1.33887,-2.01123 -8.04053,-4.68896 -4.52343,-5.02588 -0.66944,-2.34522 -5.69531,-8.87695 -1.50732,-1.67578 -1.00489,-1.84278 -2.01123,-1.17187 -3.16846,-3.4585 -2.04198,-1.08252 -1.84278,-1.50732 -6.51416,-4.00195 -7.22168,-6.55079 -4.5044,-5.50927 -3.68408,-6.19776 -1.84277,-4.69043 -1.35791,-5.21044 -0.65186,-2.86671 -0.50244,-7.32568 0.18458,-3.041012 0.48486,-3.12012 0.66943,-2.724608 0.83789,-2.34522 1.84278,-4.478025 -0.50244,-1.55127 -3.13917,0.50244 -4.58496,1.357913 -4.67139,1.82373 -4.35498,2.009767 -4.18798,2.178225 -4.37402,2.028803 -2.11524,1.154302 -4.24951,2.02734 -4.33741,2.159185 -2.00976,1.17334 -8.70996,4.18799 -7.03564,3.35009 -8.54298,4.18799 -11.05956,5.52686 -9.55665,3.1831 -13.22021,0.33252 -1.86768,-0.16553 -4.16455,0.50391 -10.05468,3.01465 -3.84669,0.83789 -5.1914,4.35498 -0.6709,1.33886 -0.95214,3.86427 -2.9004,8.19726 -3.1831,4.35938 -1.84277,4.18213 -1.784185,2.96923 -1.56006,3.40137 -1.360838,3.68555 -3.999022,4.52197 -1.750493,1.24805 -2.143065,-0.74561 h -1.05762 l -0.40869,0.83789 0.50244,1.17188 v 1.28759 l -0.691402,1.89551 -1.157228,2.00538 -3.014647,5.52978 -2.009768,2.34375 -3.685545,6.36474 -4.237793,4.90869 -2.126953,7.15137 -0.168457,14.90772 -1.507325,8.54297 0.669434,14.07568 v 9.38232 l -1.171875,6.7002 -2.34668,6.52588 -1.672851,2.51513 -1.842774,4.18506 -0.83789,0.67383 -1.340332,2.34082 -3.014649,2.6792 -1.675781,1.67432 -2.847656,2.68066 -4.060547,4.43555 -4.984863,5.44629 -4.740234,3.51855 -2.178223,1.33887 -2.668946,0.75733 -1.467773,1.58788 -2.009766,1.34033 -2.009765,1.34034 -2.011231,1.34033 -1.674316,2.00977 -2.345215,1.84277 -2.178223,1.34033 -1.841308,1.84131 -0.837891,3.18311 v 3.01464 l 0.333984,5.36133 -0.166992,5.95166 -0.166992,6.26074 -0.168457,3.86719 -0.333984,4.34033 -0.670899,4.07081 -0.669434,4.31982 -0.83789,3.40137 -0.837891,3.35009 -0.836425,3.80127 -1.672852,5.44922 -0.333984,0.91846 -0.5024415,0.67529 -0.1684575,0.91846 -0.333984,0.75146 -0.3354495,0.84375 -0.3354488,0.91846 -0.1669927,1.25244 -0.2490233,0.83789 -0.2021482,1.18653 -0.3867188,1.16454 -0.4453125,0.43946 -0.224121,0.89502 -0.1684571,0.67529 -0.2534179,0.99902 -4.1894532,0.65625 -1.0839843,1.18653 0.421875,4.05176 0.2475585,1.979 1.0107422,0.33398 0.8320312,0.92432 0.3354493,0.91845 0.1669922,1.01075 0.1669922,1.08545 0.168457,0.91992 0.1669922,1.2583 0.1669921,0.91846 0.1684571,0.84375 0.1669922,1.33447 0.1669922,1.00488 v 1.68018 l 0.168457,1.00488 v 0.75146 l -0.168457,0.91846 -0.1699219,4.06787 -0.6694336,3.85254 -0.8378906,3.40137 -0.6708984,3.29883 -1.0048829,3.3003 -0.8364258,3.35009 -0.67089837,4.01953 v 5.6792 l 0.67089837,4.03564 0.3339844,6.66944 -0.6694336,8.23975 -0.50244136,4.18652 0.16699219,6.23291 0.67089837,3.98584 4.940918,15.32666 4.0195311,18.50976 7.053223,-1.34033 5.258789,-1.67578 5.695312,2.17823 3.232911,-5.52833 1.013671,-0.93603 0.382325,-2.3042 1.233398,-1.38281 0.502441,-2.07715 0.33545,-0.66944 -1.340333,-6.19775 0.670899,-2.00977 5.862305,-2.00976 1.842773,-3.51855 1.842773,-1.34034 1.004883,-2.5122 3.51709,-4.01954 1.842773,-0.33544 2.512208,-1.34034 12.730957,-5.02441 6.364746,-10.55273 1.173339,-0.6709 1.507325,1.00488 3.685545,-1.67432 1.842772,-1.05615 1.33887,-2.79639 0.50391,-0.33545 h 1.50732 l 1.00488,-1.34033 2.34522,-0.66943 3.350093,0.50244 1.004887,-0.16699 1.340333,1.00488 3.014647,1.00488 1.00488,1.17188 5.695308,-0.33398 1.67579,-0.16846 0.50244,-1.50733 2.51221,-3.01465 1.17187,-0.83789 4.18799,-1.34033 0.83789,-1.34033 1.50733,-1.17188 0.93896,-2.17822 3.14795,-1.57324 3.45117,0.40137 3.18311,1.17187 3.3501,-0.50244 6.02929,-2.84766 3.01611,0.50244 1.17188,-3.85254 -1.84278,-1.67431 3.35303,-0.33252 0.83789,-1.84277 0.50244,-1.76075 2.17676,-0.082 1.17334,-2.34521 2.00977,0.33545 1.34033,1.50732 0.58447,-0.33545 h 1.59229 l 0.83789,-1.00488 1.50732,0.167 0.6709,-0.24903 1.84278,-0.5874 1.17187,-0.16846 1.17188,-0.16699 1.17333,-0.58447 2.00977,0.75146 3.85254,2.34521 5.20459,-0.88183 1.66406,2.3042 1.17188,1.92773 1.50732,1.50733 2.34522,-0.167 2.84765,-0.50244 2.00977,-1.34033 2.84766,0.33545 1.67577,1.67432 2.34522,1.00488 2.17676,0.6709 2.26025,-1.34034 2.68067,0.167 2.26171,-1.67432 3.09815,-0.33545 2.09472,1.50733 2.68067,0.16846 2.00977,0.50244 2.00976,1.33886 2.68066,0.83789 2.68067,0.16846 2.5122,1.00489 2.67921,0.16698 2.01123,0.33546 2.59423,1.17187 2.26319,1.00488 1.84277,2.34521 1.34033,1.50733 2.34375,0.6709 1.84277,2.00977 2.34522,-0.167 1.67578,-1.08838 1.50733,-2.00976 2.00976,-1.4253 2.84766,0.33546 4.71386,0.99756 4.09718,0.42187 3.08202,0.25488 2.17823,-0.33398 1.34033,-0.6709 3.73096,-0.68555 3.7207,-1.49121 1.17627,-3.35009 2.09326,-5.33937 2.90039,0.14502 2.06397,1.8296 3.41015,0.0132 1.85449,7.43555 -1.51904,1.94384 1.12646,4.67286 1.72119,3.53613 1.00489,2.51221 2.62793,1.07813 2.90039,-0.0733 1.7959,2.66309 1.88818,1.35644 1.50879,-1.67432 3.18164,-2.34521 4.28907,-2.21191 2.41113,-1.88379 -1.38135,-2.64111 0.77343,-2.50635 -0.39696,-2.14746 6.31933,-0.167 6.58594,-0.50244 2.67334,-0.50244 1.81933,-1.00488 0.52589,-1.17334 3.57567,0.39697 8.48438,1.4458 3.85254,2.51368 1.67578,2.67919 8.06982,2.70996 2.31592,2.14747 6.36475,0.50244 8.37598,-5.35987 3.81591,-1.55127 3.27246,-0.62548 3.46729,-0.21827 3.48779,-1.09423 3.18018,0.30615 3.04395,-1.00488 2.00976,2.39941 -2.17676,6.11572 0.33398,2.42725 1.67579,1.95556 2.84765,-5.02441 3.50245,0.66211 5.15185,0.17578 v -0.001 h 0.002 l 5.84619,-0.167 1.07667,1.67433 14.47119,0.63427 0.43652,4.5 3.68554,2.90625 -0.33544,4.85742 6.58154,0.6709 3.30176,4.69043 0.50244,2.34521 5.02588,-1.17333 3.07324,0.0146 2.95606,-3.53174 4.52343,-2.17822 3.54492,-0.53027 2.81983,-1.4795 1.50732,-3.68554 2.68067,-0.50244 2.84766,0.6709 1.67577,1.50732 1.67432,4.69043 2.97949,-1.40625 3.05127,1.23779 2.69385,2.86231 3.39258,0.73388 17.74951,-7.32568 1.12207,-2.80224 -0.73535,-3.14796 0.34131,-2.88281 1.23193,-2.17822 2.34521,-0.66943 1.00489,-2.34522 1.84277,-1.17188 -0.50244,-3.12304 0.83057,-1.90869 1.17919,-1.50147 h 2.39356 l 3.30908,-0.32813 2.16944,-0.95214 1.17334,-2.06982 -0.66944,-2.51221 3.85254,-0.83789 2.17676,0.33545 2.22656,-0.83789 2.12842,1.17187 3.01611,-2.34521 1.33887,-3.3501 2.01123,1.34033 1.22022,1.50732 4.30664,-1.8413 -1.34619,-1.8501 -0.32813,-2.44629 1.84863,-1.57325 1.33301,-2.17089 1.84277,0.83789 1.67579,-0.33545 2.67627,2.68506 -1.84278,5.18994 1.00488,2.34522 1.17334,0.83789 1.17188,1.67578 1.67578,4.85742 3.01465,1.84277 0.83789,2.76416 v 7.2041 l 1.59229,5.10645 1.59082,1.92774 2.67919,1.42236 1.34033,4.18798 5.02589,3.01612 0.16699,2.17675 0.66943,1.84278 -0.082,1.67432 0.91992,1.84277 1.50879,9.54785 3.51709,2.5122 3.09961,0.16846 5.69824,2.34375 3.68409,-0.66943 5.44042,-4.01953 2.17823,1.84131 1.00488,3.01611 2.54151,1.29932 1.81347,2.72021 2.5122,1.67578 3.17286,-0.32665 5.37451,-1.18213 5.19287,-0.89795 2.08594,3.01025 3.27392,-2.1123 3.07325,2.0039 4.80029,0.17285 1.17188,-3.51708 2.44189,-1.38868 3.42041,0.21533 2.17822,5.52833 5.02442,1.34033 5.10351,-0.33545 4.021,-2.79932 1.85742,1.54541 1.07959,3.76611 0.92431,3.83057 0.0806,3.37207 0.25342,2.58691 3.93457,1.43408 5.1914,3.5171 5.16798,0.93457 3.19775,1.74462 1.00488,2.34522 1.00489,2.34522 2.34521,0.66943 1.03272,2.28076 -1.12208,3.18457 2.93994,1.70068 4.05469,0.51123 4.88087,1.87793 2.28515,1.16602 1.84131,0.50244 2.17675,1.17334 1.67579,1.67431 1.00634,1.50879 2.6792,-0.16845 4.021,2.73779 1.33886,4.46485 4.188,6.02929 2.84765,4.35498 2.51368,3.01612 4.35498,0.50244 3.01464,2.84765 3.18311,0.50245 3.56982,4.1455 1.89697,4.15284 -0.10693,3.69433 2.98681,5.66016 1.36817,2.71436 1.00489,2.2456 2.5122,2.51221 2.17822,1.84277 1.67725,1.8457 2.10791,0.49951 1.74317,-0.50244 3.01464,1.84278 2.34961,6.36914 2.17237,0.33105 2.17821,-1.00488 2.13427,0.44092 3.05858,0.22851 2.40825,1.17334 2.4492,1.17188 2.00242,1.57324 2.01713,1.27442 1.84425,1.50878 3.11422,0.50098 1.6743,-0.50244 2.74808,-0.33399 2.30272,0.7749 2.66603,-0.51415 3.5757,-0.93311 0.8979,-3.30469 0.27247,-2.38916 3.6255,-0.39111 7.2627,0.72656 2.39205,3.4834 3.80573,1.54248 3.01605,-0.77051 1.3389,-2.91504 3.18607,-2.01269 3.51413,-1.5044 3.1362,-1.74756 1.0518,-3.44531 0.50535,-2.85058 2.00827,-2.67774 0.16703,-1.84277 1.6743,-4.52197 1.34182,-3.35157 2.04053,-0.33398 1.64355,-1.10449 1.17187,-2.07861 1.34033,-2.00977 1.81935,-1.50733 2.84767,-2.00976 1.67573,-1.67578 2.02005,1.18212 0.939,-1.01367 2.625,-0.83789 2.75827,0.56983 2.87985,-0.23438 0.53033,-3.12891 1.6479,-1.72851 1.8516,-0.8291 2.05665,0.32519 1.7871,-0.50244 1.6743,1.17334 1.1733,1.84277 3.18165,0.83643 1.52782,2.03028 2.49323,2.32617 2.17672,1.84131 1.17773,2.36572 2.17237,1.37695 2.09033,0.97412 2.6001,-0.52881 2.35252,-1.34326 2.84033,-1.33593 2.17822,-1.00635 0.5025,-1.50732 1.50728,-1.50733 1.50735,1.50733 2.34517,0.83788 2.68073,0.50245 1.95405,1.17334 2.56935,0.50244 3.01462,-0.16846 2.56793,0.83789 3.12592,0.50244 2.84768,0.167 3.3501,0.33544 2.68065,-0.16699 3.0147,0.16699 2.9604,-1.00488 0.73537,-1.34912 0.65918,-3.34131 0.67087,-4.29932 0.66945,-3.74121 -0.16695,-4.68896 -1.17337,-4.97022 -1.00485,-3.9082 2.7246,-3.83496 0.8877,-3.87744 1.41352,-3.00732 6.5523,-6.04981 4.51313,-4.68164 0.8277,-0.82764 h 1.61865 l 1.0605,0.55811 1.6758,-0.167 0.16695,-1.06054 1.00492,-0.50244 0.67088,-0.94922 0.78225,-0.72657 0.55807,-1.00488 v -1.17187 l -0.16845,-1.34033 -0.82762,-1.18213 1.49857,-0.15821 0.16695,-1.00488 1.1631,-1.18213 0.84668,-1.33154 -1.50735,-1.50586 -1.50728,-0.6709 0.3354,-1.67431 3.126,-0.16846 2.7363,-1.33887 0.99465,-1.35059 1.51763,-1.16308 1.34032,-0.167 1.84275,0.50245 0.50243,-0.33545 0.66945,-1.50733 1.34032,-0.44677 1.17338,-1.72998 0.8364,-2.00977 v -1.50879 l 0.16845,-2.17676 1.17187,-2.00976 0.55808,-1.34034 1.46197,-1.01513 0.99608,-1.94531 1.00485,-2.23242 1.81057,-1.07227 2.88135,0.0673 2.95898,1.17188 1.39455,-2.51221 2.14447,-1.57471 3.22418,-0.9375 1.00485,-1.00634 0.16845,-1.42383 1.50735,-2.09327 1.17187,-2.17675 2.0112,-0.6709 0.83648,-1.34033 h 1.00635 l 2.00977,-0.33398 1.84275,-1.34034 0.8364,-1.34033 -0.16695,-1.67431 1.00485,-1.75929 -1.50735,-1.92627 0.75443,-0.83788 2.26027,-0.66944 -0.16702,-2.01123 -1.78268,-1.08691 1.00043,-4.04737 2.95905,-2.5708 1.95405,-4.74316 -0.27833,-5.80957 -2.17822,-3.3501 -2.5122,-5.19287 -0.8379,-4.35498 -1.41645,-3.92432 -3.2637,-2.76562 -0.17723,-3.52735 2.00978,-4.01953 -0.29445,-2.96191 0.0217,-3.90381 0.7749,-3.35303 -1.6743,-2.17675 -1.17188,-1.00635 -1.17337,-0.83643 -0.92138,-1.34033 -1.25535,-2.17822 -1.6758,-1.00489 -0.33547,-1.50732 -1.17188,-1.17187 -0.8379,-1.34034 0.5025,-2.00976 -1.36672,-2.3628 -2.9883,1.18946 -0.66945,-2.17823 -0.41888,-2.67919 0.92138,-1.67579 2.00977,-2.5122 2.67915,-1.00488 v -2.26173 l 0.33548,-2.93115 -0.8379,-2.17675 -2.17673,-0.83789 -2.09475,0.16698 -3.09817,-0.50244 -3.3501,0.16846 -2.17823,-1.00488 -0.66937,-4.35644 -2.751,-4.24073 -1.63035,-6.9917 -0.97853,-5.34961 -1.6758,-2.5122 -2.34524,-0.33546 v -3.01611 l -1.50728,-1.50732 -1.84283,-1.67432 -1.6743,-1.75927 -2.0112,-1.59082 -2.00977,-1.84278 -0.50243,-2.00976 -0.83647,-0.16846 -0.67088,-1.17187 -0.33547,-2.68067 1.50885,-2.51221 2.59567,-0.66943 1.59083,-1.92773 -1.00493,-2.42871 0.16853,-2.51221 1.84125,-1.67432 1.84282,-0.67089 0.67088,-1.84131 -0.33547,-1.59229 -0.66938,-1.42383 -0.8379,-2.00976 -1.9395,1.76367 -3.8481,1.86035 -2.56935,0.1919 -1.0239,-3.64893 -1.72125,-3.70019 -2.03467,-3.45704 -1.63035,-2.23096 -3.15675,1.34913 -5.1357,2.90185 -2.4024,0.27979 -2.34375,0.16846 -1.84276,1.17187 -2.09474,0.33545 -1.59075,1.84278 -1.92631,0.66942 -1.4238,2.17676 -2.68072,1.00635 -2.41845,0.50245 -0.0525,-5.4712 1.50735,-5.25 0.50243,-5.35986 0.66944,-2.39795 1.2129,-1.69043 3.05416,0.20654 2.93557,-1.81347 0.16845,-5.45361 1.11765,-7.89552 1.89697,-7.92333 -6.53317,0.66943 -0.50243,-2.17676 1.00485,-2.95752 0.16845,-3.3501 0.94778,-2.40234 1.56442,-1.61865 -0.83782,-2.67921 0.83782,-2.23535 1.34033,-1.67431 0.16702,-1.50879 h -2.34517 l -1.67438,-0.83643 -2.17822,-0.83789 0.009,-2.50342 2.51362,0.19336 1.90575,0.46436 -1.59082,-2.64111 0.4629,-2.10059 1.05472,-2.12256 2.01998,-1.34912 1.66552,-0.32666 1.84283,-0.50244 1.61865,-1.50732 1.22895,-1.89552 0.33547,-2.45946 1.3389,-2.1211 -0.2505,-2.86377 -0.89647,-3.80273 -0.0248,-2.26758 1.50727,-1.84278 -0.3354,-2.17822 0.50243,-2.62207 1.34032,-1.61865 0.8379,-2.29101 0.8379,-0.94922 -0.67095,-2.06689 -0.50242,-2.16358 0.50242,-3.30615 v -2.84473 l -1.17187,-2.34814 -2.0097,-1.06202 -0.67095,-1.50732 -1.17188,-1.00489 -1.1733,-1.67577 -5.69535,0.83789 -1.00485,-3.3501 -0.16702,-2.68067 -2.5122,-2.17675 -4.6362,-1.30958 -4.40918,-2.20898 -1.21875,-0.87012 -1.18072,-3.02636 -0.83055,-1.96143 -4.68893,-1.00635 -3.72802,-2.85791 -2.80523,-0.82617 -3.51855,1.50732 -3.34567,-2.63525 -2.85203,-0.3794 2.64105,-10.69189 1.54688,-1.14111 0.33547,-3.17725 0.16703,-2.41113 0.16845,-2.00977 0.8364,-1.67578 -1.00485,-2.17676 -1.44143,-0.33544 0.26955,-2.34522 0.18158,-2.34521 -4.36958,-0.167 -3.0147,0.50244 -2.58247,0.83789 -1.10745,1.34034 -3.0102,-0.33545 -1.96583,1.6333 -2.71732,0.58301 -2.42288,-1.04443 -1.93942,-1.50733 -1.50735,2.17822 -2.23388,2.23389 -3.12742,-1.06201 -2.28075,-2.28077 -2.74365,-1.40331 -2.55765,-1.06056 -2.40233,-1.43261 -3.41602,-0.68994 -4.69043,1.00488 -4.02097,-2.12256 -4.39605,-0.22265 -2.60595,-0.50244 -1.3725,-0.50245 -0.97268,-1.17187 -1.74465,-1.34034 -2.78175,-1.13378 -2.0376,0.16113 -0.67087,-1.37256 -0.24608,-2.92529 -3.0747,-1.13379 -3.2124,-0.46435 -1.19827,-0.8628 -1.31393,-0.30908 -1.50735,1.67432 -2.57962,0.3706 0.73687,-2.85498 -2.00977,-1.53515 -0.8379,-1.84278 -2.18265,-0.66943 -2.1987,1.70068 -2.31885,1.64942 -1.6743,1.17188 -0.76762,1.84277 -0.0705,2.34521 -0.58448,2.12842 -1.95412,1.58203 0.051,1.84277 -1.8648,-1.36963 -2.0097,-0.33545 -1.7403,1.63623 -1.77825,-0.003 0.50242,1.21436 -1.23487,3.18164 -2.95313,-0.16699 2.40968,-2.97656 -2.87108,-1.18653 -2.1153,-1.6084 0.18022,2.85938 -2.4375,1.30078 -2.70262,-0.085 -3.08647,1.32422 -0.0967,1.87939 -1.4868,1.00489 -2.30565,1.62011 -2.63962,3.4336 -0.72075,3.8833 -0.8247,1.78418 -1.7373,-0.50244 -0.50243,-1.50733 -0.50242,-1.34033 -0.33548,-1.38135 -0.50242,-2.13721 -0.5025,1.27735 -1.67573,0.90088 -0.66945,1.54981 0.32955,2.14013 -3.0102,0.49805 -5.52688,-2.17822 -1.34033,-5.02442 -3.1831,-7.3711 -8.81982,1.12794 -5.54883,-1.84131 -3.38673,0.21093 -2.66894,-1.00488 -0.89062,-2.05078 -2.78321,0.37647 -1.53076,-0.98291 -3.5581,-6.01172 -0.12598,-1.21289 -1.17335,-1.34033 0.50245,-1.67579 -1.17187,-2.17675 v -2.66895 l -2.21924,-0.89062 -1.2583,-1.67432 -0.375,-2.3042 -1.67579,-1.17187 -2.17675,-0.6709 2.05077,-6.070313 -0.20946,-2.304202 -3.85254,-2.512208 -3.15821,-0.565425 -1.36377,-1.948245 v -2.166502 l -8.91943,-3.90381 -2.45947,1.212892 -2.22656,-2.145997 -1.87354,0.117187 4.42383,-16.395996 -0.50245,-3.016114 -3.52587,0.08789 -4.1792,-2.433106 -3.22558,2.506348 -2.65723,0.262207 -4.00049,-0.925782 -4.396,1.381348 -1.85888,-4.190917 -2.44483,1.804687 -4.86914,-1.674316 -4.09863,-7.048829 -0.58887,-2.818359 -7.03711,-4.371094 -4.18799,5.695313 -6.54639,-3.449708 -1.80761,-3.584472 -7.70508,-3.181641 1.34033,-2.995605 -1.42236,-3.357422 -2.09619,1.568848 -1.75928,-1.83545 -3.7705,0.427735 -0.2461,-1.504395 -3.7749,0.0249 -6.52881,-4.557129 0.33398,-1.338867 1.50733,-0.335449 -0.12158,-2.192871 -3.60792,-2.731934 -3.76025,-1.77539 -4.60547,-0.101075 -7.98632,-10.8706048 -3.1377,-0.5053711 -2.4082,2.9677736 5.19286,9.3471673 -0.92138,6.953614 -1.59229,2.425781 -3.51708,-1.278808 -3.85254,-5.755371 1.00488,-1.006348 -1.92774,-1.258301 -0.082,-5.869629 z m 335.82718,166.627438 0.66937,6.60791 -0.33397,-3.22119 z M 8.150391,394.68896 l 0.959472,0.31202 0.8422852,0.33544 z M 143.95019,407.896 c -0.77277,1.28793 -1.5486,2.49709 -2.68066,3.51855 z m 254.28809,23.58105 0.3252,4.72851 -0.33399,-4.66113 z"/>
</svg>
