<svg
   width="1e3pt"
   height="600pt"
   version="1.1"
   viewBox="0 0 1e3 600"
   xmlns="http://www.w3.org/2000/svg"
   xmlns:svg="http://www.w3.org/2000/svg">

  <path id="0000000"
     d="m 573.43652,4.715332 -2.0581,2.4814453 -9.39258,-0.4145507 -1.49414,2.9575194 -3.80566,1.17334 -5.86231,9.714843 -3.79541,2.881348 -5.99414,0.615235 -15.33545,9.402832 -3.18311,-4.523438 -5.41406,1.353515 -3.2959,2.014161 -0.94629,3.583008 -3.62695,1.535156 -2.65576,1.788574 -3,-2.233887 -2.76856,1.290528 -2.23389,2.825683 -2.78027,-2.674804 -3.30615,-1.160157 -4.37988,2.535645 -3.28272,1.212891 -1.00342,3.172851 -6.45849,1.340332 -2.09326,3.536133 0.63574,2.620606 0.88037,5.065429 -4.15576,2.540039 -2.37744,-0.528809 -3.97559,-0.6958 -3.56103,-0.309082 -0.39404,2.126953 -0.44385,2.654297 -0.8379,3.257813 -0.62109,3.704589 0.11865,3.42334 1.00488,3.424802 0.167,2.84766 0.33545,3.350093 0.33545,4.205572 -0.33545,2.06103 v 3.28125 l -0.33545,1.675785 v 7.202628 l 1.17334,2.00977 0.83789,2.34521 0.83643,3.2754 0.6709,3.40137 0.16698,3.87597 1.17335,2.84766 1.00488,3.0498 -1.00488,2.98096 -0.83789,3.35009 -1.00488,2.77149 0.50244,3.06738 -0.16846,3.6504 -0.167,3.57568 1.34034,2.84765 0.50244,3.44239 0.33545,3.25781 v 3.36768 l 0.16699,3.68554 0.33545,4.46338 0.50244,3.76026 0.50244,3.81884 0.66943,3.3501 0.33546,3.95508 0.16698,4.28759 0.33546,6.33106 0.33691,1.72998 -0.16846,1.45166 v 4.26709 l -0.50244,1.25977 1.17334,0.72656 -0.16699,3.44824 0.16699,1.52051 0.50244,1.1499 v 3.86279 l -0.16699,1.51758 -0.6709,2.59717 -0.50244,1.2583 -0.33545,1.34033 -1.00488,2.25879 -0.63135,1.18213 -2.21631,3.59473 -2.34521,2.84766 -1.67139,2.25 h -0.002 l -0.50244,0.51856 -0.50245,0.57861 -0.51855,0.50243 -0.74121,0.75733 -0.91699,0.84228 -0.50244,0.57715 -0.51856,0.50245 -0.65479,0.51855 -0.66942,0.65478 -0.7837,0.61671 -0.55664,0.55517 -0.66943,0.42773 -0.67676,0.41748 -0.66357,0.51123 -0.6709,0.74561 -0.83643,0.42627 -0.50244,0.59473 -0.50244,0.59472 -0.5039,0.63721 -0.66944,1.09717 -0.50244,0.6709 -0.50245,0.7456 -0.50244,0.66944 -0.50976,0.50976 -0.51123,0.66357 -0.55371,0.56837 -0.77051,0.86279 -0.50244,0.57861 -0.50977,0.50831 -0.66357,0.51269 -0.56543,0.68554 -1.27588,0.98877 -0.83789,0.65479 -0.59473,0.66943 -0.83789,0.6709 -0.86572,0.62256 -0.77783,0.60938 -0.6416,0.60937 -0.82178,0.50244 -0.82032,0.59473 -0.83788,0.57861 -0.84522,0.50977 -0.83057,0.49511 -0.93603,0.68848 -1.08692,0.65185 -1.66113,0.83789 -1.34033,0.68263 -1.67578,0.8247 -1.84277,0.51563 -1.54541,0.65625 -1.80469,0.50244 -1.17188,0.67089 -1.84277,-1.00487 -0.16699,1.17187 0.89502,1.06348 -0.72803,1.78417 -0.85108,1.34034 -0.82323,1.01806 -1.00635,1.49414 -1.06202,1.06348 -1.45019,1.61719 -1.17188,1.00488 -1.50732,0.83643 -1.00635,0.83789 -2.17676,1.34033 -4.69189,2.84619 -1.6084,0.68115 -3.44384,1.49561 -3.49073,1.34033 -3.25049,1.07373 -5.45947,1.60694 -7.89991,1.67431 -4.64794,0.6709 h -3.94043 l -4.4502,-0.6709 -2.34521,-1.67431 -2.09033,-0.33546 -3.43652,-1.00488 -1.00489,-0.17139 -0.33545,-1.17333 -0.83789,-0.99903 -1.00489,-0.67089 -0.67529,-0.83643 -0.83203,-1.01074 -0.66943,-1.35206 -0.50244,-1.82519 -0.67676,-1.50733 -0.66357,-1.34619 -0.8379,-0.83202 -0.50244,-1.67433 -1.51318,-1.00488 h -2.60303 l -2.75097,-0.16845 -3.3501,-0.33984 -2.01563,-0.49659 -2.00536,-0.50391 -1.50733,-0.66943 -1.00488,-0.33545 -1.86622,-0.59766 -1.31689,-0.90966 -1.50732,-0.6709 -1.17188,-0.66944 -1.00635,-0.83788 -1.18359,-0.83789 -1.32862,-1.00489 -1.00488,-0.83789 -1.00488,-0.84228 -0.89062,-1.05323 -0.95216,-0.95215 -0.83788,-1.33886 -0.84229,-1.17334 -0.83203,-1.17188 -0.6709,-1.17334 -0.83642,-1.0166 -0.50244,-1.708 -0.16846,-2.65137 -0.167,-2.17236 -0.33544,-2.35694 0.33544,-2.17676 v -2.3291 l 0.49073,-1.16601 -0.99317,-1.17335 -0.67089,-1.67431 -0.66944,-1.35205 -0.66943,-1.66846 -0.50244,-1.84277 -0.6709,-1.83692 -0.33545,-1.35204 -0.66943,-1.49562 -0.83789,-1.34619 -0.66944,-1.50146 -0.6709,-1.5249 -0.38672,-2.04639 0.21973,-0.9624 -0.33545,-1.69775 0.50244,-1.98194 -0.27246,-1.94385 -0.89941,-1.23925 -0.33545,-2.34522 -0.33399,-2.34961 -0.16845,-1.33008 -0.33399,-1.50732 -0.67089,-1.68018 -1.17627,-1.83691 v -0.001 l -1.00489,-1.96436 0.16699,-2.72461 -1.33887,-1.17187 -0.33544,-3.01612 0.83789,-2.00976 -1.50733,-1.67432 -4.6582,-0.26807 -2.21045,-1.23925 -4.70801,-1.69336 -1.82519,-1.65674 -1.33887,-2.01123 -8.04053,-4.68896 -4.52343,-5.02588 -0.66944,-2.34522 -5.69531,-8.87695 -1.50732,-1.67578 -1.00489,-1.84278 -2.01123,-1.17187 -3.16846,-3.4585 -2.04198,-1.08252 -1.84278,-1.50732 -6.51416,-4.00195 -7.22168,-6.55079 -4.5044,-5.50927 -3.68408,-6.19776 -1.84277,-4.69043 -1.35791,-5.21044 -0.65186,-2.86671 -0.50244,-7.32568 0.18458,-3.041012 0.48486,-3.12012 0.66943,-2.724608 0.83789,-2.34522 1.84278,-4.478025 -0.50244,-1.55127 -3.13917,0.50244 -4.58496,1.357913 -4.67139,1.82373 -4.35498,2.009767 -4.18798,2.178225 -4.37402,2.028803 -2.11524,1.154302 -4.24951,2.02734 -4.33741,2.159185 -2.00976,1.17334 -8.70996,4.18799 -7.03564,3.35009 -8.54298,4.18799 -11.05956,5.52686 -9.55665,3.1831 -13.22021,0.33252 -1.86768,-0.16553 -4.16455,0.50391 -10.05468,3.01465 -3.84669,0.83789 -5.1914,4.35498 -0.6709,1.33886 -0.95214,3.86427 -2.9004,8.19726 -3.1831,4.35938 -1.84277,4.18213 -1.784185,2.96923 -1.56006,3.40137 -1.360838,3.68555 -3.999022,4.52197 -1.750493,1.24805 -2.143065,-0.74561 h -1.05762 l -0.40869,0.83789 0.50244,1.17188 v 1.28759 l -0.691402,1.89551 -1.157228,2.00538 -3.014647,5.52978 -2.009768,2.34375 -3.685545,6.36474 -4.237793,4.90869 -2.126953,7.15137 -0.168457,14.90772 -1.507325,8.54297 0.669434,14.07568 v 9.38232 l -1.171875,6.7002 -2.34668,6.52588 -1.672851,2.51513 -1.842774,4.18506 -0.83789,0.67383 -1.340332,2.34082 -3.014649,2.6792 -1.675781,1.67432 -2.847656,2.68066 -4.060547,4.43555 -4.984863,5.44629 -4.740234,3.51855 -2.178223,1.33887 -2.668946,0.75733 -1.467773,1.58788 -2.009766,1.34033 -2.009765,1.34034 -2.011231,1.34033 -1.674316,2.00977 -2.345215,1.84277 -2.178223,1.34033 -1.841308,1.84131 -0.837891,3.18311 v 3.01464 l 0.333984,5.36133 -0.166992,5.95166 -0.166992,6.26074 -0.168457,3.86719 -0.333984,4.34033 -0.670899,4.07081 -0.669434,4.31982 -0.83789,3.40137 -0.837891,3.35009 -0.836425,3.80127 -1.672852,5.44922 -0.333984,0.91846 -0.5024415,0.67529 -0.1684575,0.91846 -0.333984,0.75146 -0.3354495,0.84375 -0.3354488,0.91846 -0.1669927,1.25244 -0.2490233,0.83789 -0.2021482,1.18653 -0.3867188,1.16454 -0.4453125,0.43946 -0.224121,0.89502 -0.1684571,0.67529 -0.2534179,0.99902 -4.1894532,0.65625 -1.0839843,1.18653 0.421875,4.05176 0.2475585,1.979 1.0107422,0.33398 0.8320312,0.92432 0.3354493,0.91845 0.1669922,1.01075 0.1669922,1.08545 0.168457,0.91992 0.1669922,1.2583 0.1669921,0.91846 0.1684571,0.84375 0.1669922,1.33447 0.1669922,1.00488 v 1.68018 l 0.168457,1.00488 v 0.75146 l -0.168457,0.91846 -0.1699219,4.06787 -0.6694336,3.85254 -0.8378906,3.40137 -0.6708984,3.29883 -1.0048829,3.3003 -0.8364258,3.35009 -0.67089837,4.01953 v 5.6792 l 0.67089837,4.03564 0.3339844,6.66944 -0.6694336,8.23975 -0.50244136,4.18652 0.16699219,6.23291 0.67089837,3.98584 4.940918,15.32666 4.0195311,18.50976 7.053223,-1.34033 5.258789,-1.67578 5.695312,2.17823 3.232911,-5.52833 1.013671,-0.93603 0.382325,-2.3042 1.233398,-1.38281 0.502441,-2.07715 0.33545,-0.66944 -1.340333,-6.19775 0.670899,-2.00977 5.862305,-2.00976 1.842773,-3.51855 1.842773,-1.34034 1.004883,-2.5122 3.51709,-4.01954 1.842773,-0.33544 2.512208,-1.34034 12.730957,-5.02441 6.364746,-10.55273 1.173339,-0.6709 1.507325,1.00488 3.685545,-1.67432 1.842772,-1.05615 1.33887,-2.79639 0.50391,-0.33545 h 1.50732 l 1.00488,-1.34033 2.34522,-0.66943 3.350093,0.50244 1.004887,-0.16699 1.340333,1.00488 3.014647,1.00488 1.00488,1.17188 5.695308,-0.33398 1.67579,-0.16846 0.50244,-1.50733 2.51221,-3.01465 1.17187,-0.83789 4.18799,-1.34033 0.83789,-1.34033 1.50733,-1.17188 0.93896,-2.17822 3.14795,-1.57324 3.45117,0.40137 3.18311,1.17187 3.3501,-0.50244 6.02929,-2.84766 3.01611,0.50244 1.17188,-3.85254 -1.84278,-1.67431 3.35303,-0.33252 0.83789,-1.84277 0.50244,-1.76075 2.17676,-0.082 1.17334,-2.34521 2.00977,0.33545 1.34033,1.50732 0.58447,-0.33545 h 1.59229 l 0.83789,-1.00488 1.50732,0.167 0.6709,-0.24903 1.84278,-0.5874 1.17187,-0.16846 1.17188,-0.16699 1.17333,-0.58447 2.00977,0.75146 3.85254,2.34521 5.20459,-0.88183 1.66406,2.3042 1.17188,1.92773 1.50732,1.50733 2.34522,-0.167 2.84765,-0.50244 2.00977,-1.34033 2.84766,0.33545 1.67577,1.67432 2.34522,1.00488 2.17676,0.6709 2.26025,-1.34034 2.68067,0.167 2.26171,-1.67432 3.09815,-0.33545 2.09472,1.50733 2.68067,0.16846 2.00977,0.50244 2.00976,1.33886 2.68066,0.83789 2.68067,0.16846 2.5122,1.00489 2.67921,0.16698 2.01123,0.33546 2.59423,1.17187 2.26319,1.00488 1.84277,2.34521 1.34033,1.50733 2.34375,0.6709 1.84277,2.00977 2.34522,-0.167 1.67578,-1.08838 1.50733,-2.00976 2.00976,-1.4253 2.84766,0.33546 4.71386,0.99756 4.09718,0.42187 3.08202,0.25488 2.17823,-0.33398 1.34033,-0.6709 3.73096,-0.68555 3.7207,-1.49121 1.17627,-3.35009 2.09326,-5.33937 2.90039,0.14502 2.06397,1.8296 3.41015,0.0132 1.85449,7.43555 -1.51904,1.94384 1.12646,4.67286 1.72119,3.53613 1.00489,2.51221 2.62793,1.07813 2.90039,-0.0733 1.7959,2.66309 1.88818,1.35644 1.50879,-1.67432 3.18164,-2.34521 4.28907,-2.21191 2.41113,-1.88379 -1.38135,-2.64111 0.77343,-2.50635 -0.39696,-2.14746 6.31933,-0.167 6.58594,-0.50244 2.67334,-0.50244 1.81933,-1.00488 0.52589,-1.17334 3.57567,0.39697 8.48438,1.4458 3.85254,2.51368 1.67578,2.67919 8.06982,2.70996 2.31592,2.14747 6.36475,0.50244 8.37598,-5.35987 3.81591,-1.55127 3.27246,-0.62548 3.46729,-0.21827 3.48779,-1.09423 3.18018,0.30615 3.04395,-1.00488 2.00976,2.39941 -2.17676,6.11572 0.33398,2.42725 1.67579,1.95556 2.84765,-5.02441 3.50245,0.66211 5.15185,0.17578 v -0.001 h 0.002 l 5.84619,-0.167 1.07667,1.67433 14.47119,0.63427 0.43652,4.5 3.68554,2.90625 -0.33544,4.85742 6.58154,0.6709 3.30176,4.69043 0.50244,2.34521 5.02588,-1.17333 3.07324,0.0146 2.95606,-3.53174 4.52343,-2.17822 3.54492,-0.53027 2.81983,-1.4795 1.50732,-3.68554 2.68067,-0.50244 2.84766,0.6709 1.67577,1.50732 1.67432,4.69043 2.97949,-1.40625 3.05127,1.23779 2.69385,2.86231 3.39258,0.73388 17.74951,-7.32568 1.12207,-2.80224 -0.73535,-3.14796 0.34131,-2.88281 1.23193,-2.17822 2.34521,-0.66943 1.00489,-2.34522 1.84277,-1.17188 -0.50244,-3.12304 0.83057,-1.90869 1.17919,-1.50147 h 2.39356 l 3.30908,-0.32813 2.16944,-0.95214 1.17334,-2.06982 -0.66944,-2.51221 3.85254,-0.83789 2.17676,0.33545 2.22656,-0.83789 2.12842,1.17187 3.01611,-2.34521 1.33887,-3.3501 2.01123,1.34033 1.22022,1.50732 4.30664,-1.8413 -1.34619,-1.8501 -0.32813,-2.44629 1.84863,-1.57325 1.33301,-2.17089 1.84277,0.83789 1.67579,-0.33545 2.67627,2.68506 -1.84278,5.18994 1.00488,2.34522 1.17334,0.83789 1.17188,1.67578 1.67578,4.85742 3.01465,1.84277 0.83789,2.76416 v 7.2041 l 1.59229,5.10645 1.59082,1.92774 2.67919,1.42236 1.34033,4.18798 5.02589,3.01612 0.16699,2.17675 0.66943,1.84278 -0.082,1.67432 0.91992,1.84277 1.50879,9.54785 3.51709,2.5122 3.09961,0.16846 5.69824,2.34375 3.68409,-0.66943 5.44042,-4.01953 2.17823,1.84131 1.00488,3.01611 2.54151,1.29932 1.81347,2.72021 2.5122,1.67578 3.17286,-0.32665 5.37451,-1.18213 5.19287,-0.89795 2.08594,3.01025 3.27392,-2.1123 3.07325,2.0039 4.80029,0.17285 1.17188,-3.51708 2.44189,-1.38868 3.42041,0.21533 2.17822,5.52833 5.02442,1.34033 5.10351,-0.33545 4.021,-2.79932 1.85742,1.54541 1.07959,3.76611 0.92431,3.83057 0.0806,3.37207 0.25342,2.58691 3.93457,1.43408 5.1914,3.5171 5.16798,0.93457 3.19775,1.74462 1.00488,2.34522 1.00489,2.34522 2.34521,0.66943 1.03272,2.28076 -1.12208,3.18457 2.93994,1.70068 4.05469,0.51123 4.88087,1.87793 2.28515,1.16602 1.84131,0.50244 2.17675,1.17334 1.67579,1.67431 1.00634,1.50879 2.6792,-0.16845 4.021,2.73779 1.33886,4.46485 4.188,6.02929 2.84765,4.35498 2.51368,3.01612 4.35498,0.50244 3.01464,2.84765 3.18311,0.50245 3.56982,4.1455 1.89697,4.15284 -0.10693,3.69433 2.98681,5.66016 1.36817,2.71436 1.00489,2.2456 2.5122,2.51221 2.17822,1.84277 1.67725,1.8457 2.10791,0.49951 1.74317,-0.50244 3.01464,1.84278 2.34961,6.36914 2.17237,0.33105 2.17821,-1.00488 2.13427,0.44092 3.05858,0.22851 2.40825,1.17334 2.4492,1.17188 2.00242,1.57324 2.01713,1.27442 1.84425,1.50878 3.11422,0.50098 1.6743,-0.50244 2.74808,-0.33399 2.30272,0.7749 2.66603,-0.51415 3.5757,-0.93311 0.8979,-3.30469 0.27247,-2.38916 3.6255,-0.39111 7.2627,0.72656 2.39205,3.4834 3.80573,1.54248 3.01605,-0.77051 1.3389,-2.91504 3.18607,-2.01269 3.51413,-1.5044 3.1362,-1.74756 1.0518,-3.44531 0.50535,-2.85058 2.00827,-2.67774 0.16703,-1.84277 1.6743,-4.52197 1.34182,-3.35157 2.04053,-0.33398 1.64355,-1.10449 1.17187,-2.07861 1.34033,-2.00977 1.81935,-1.50733 2.84767,-2.00976 1.67573,-1.67578 2.02005,1.18212 0.939,-1.01367 2.625,-0.83789 2.75827,0.56983 2.87985,-0.23438 0.53033,-3.12891 1.6479,-1.72851 1.8516,-0.8291 2.05665,0.32519 1.7871,-0.50244 1.6743,1.17334 1.1733,1.84277 3.18165,0.83643 1.52782,2.03028 2.49323,2.32617 2.17672,1.84131 1.17773,2.36572 2.17237,1.37695 2.09033,0.97412 2.6001,-0.52881 2.35252,-1.34326 2.84033,-1.33593 2.17822,-1.00635 0.5025,-1.50732 1.50728,-1.50733 1.50735,1.50733 2.34517,0.83788 2.68073,0.50245 1.95405,1.17334 2.56935,0.50244 3.01462,-0.16846 2.56793,0.83789 3.12592,0.50244 2.84768,0.167 3.3501,0.33544 2.68065,-0.16699 3.0147,0.16699 2.9604,-1.00488 0.73537,-1.34912 0.65918,-3.34131 0.67087,-4.29932 0.66945,-3.74121 -0.16695,-4.68896 -1.17337,-4.97022 -1.00485,-3.9082 2.7246,-3.83496 0.8877,-3.87744 1.41352,-3.00732 6.5523,-6.04981 4.51313,-4.68164 0.8277,-0.82764 h 1.61865 l 1.0605,0.55811 1.6758,-0.167 0.16695,-1.06054 1.00492,-0.50244 0.67088,-0.94922 0.78225,-0.72657 0.55807,-1.00488 v -1.17187 l -0.16845,-1.34033 -0.82762,-1.18213 1.49857,-0.15821 0.16695,-1.00488 1.1631,-1.18213 0.84668,-1.33154 -1.50735,-1.50586 -1.50728,-0.6709 0.3354,-1.67431 3.126,-0.16846 2.7363,-1.33887 0.99465,-1.35059 1.51763,-1.16308 1.34032,-0.167 1.84275,0.50245 0.50243,-0.33545 0.66945,-1.50733 1.34032,-0.44677 1.17338,-1.72998 0.8364,-2.00977 v -1.50879 l 0.16845,-2.17676 1.17187,-2.00976 0.55808,-1.34034 1.46197,-1.01513 0.99608,-1.94531 1.00485,-2.23242 1.81057,-1.07227 2.88135,0.0673 2.95898,1.17188 1.39455,-2.51221 2.14447,-1.57471 3.22418,-0.9375 1.00485,-1.00634 0.16845,-1.42383 1.50735,-2.09327 1.17187,-2.17675 2.0112,-0.6709 0.83648,-1.34033 h 1.00635 l 2.00977,-0.33398 1.84275,-1.34034 0.8364,-1.34033 -0.16695,-1.67431 1.00485,-1.75929 -1.50735,-1.92627 0.75443,-0.83788 2.26027,-0.66944 -0.16702,-2.01123 -1.78268,-1.08691 1.00043,-4.04737 2.95905,-2.5708 1.95405,-4.74316 -0.27833,-5.80957 -2.17822,-3.3501 -2.5122,-5.19287 -0.8379,-4.35498 -1.41645,-3.92432 -3.2637,-2.76562 -0.17723,-3.52735 2.00978,-4.01953 -0.29445,-2.96191 0.0217,-3.90381 0.7749,-3.35303 -1.6743,-2.17675 -1.17188,-1.00635 -1.17337,-0.83643 -0.92138,-1.34033 -1.25535,-2.17822 -1.6758,-1.00489 -0.33547,-1.50732 -1.17188,-1.17187 -0.8379,-1.34034 0.5025,-2.00976 -1.36672,-2.3628 -2.9883,1.18946 -0.66945,-2.17823 -0.41888,-2.67919 0.92138,-1.67579 2.00977,-2.5122 2.67915,-1.00488 v -2.26173 l 0.33548,-2.93115 -0.8379,-2.17675 -2.17673,-0.83789 -2.09475,0.16698 -3.09817,-0.50244 -3.3501,0.16846 -2.17823,-1.00488 -0.66937,-4.35644 -2.751,-4.24073 -1.63035,-6.9917 -0.97853,-5.34961 -1.6758,-2.5122 -2.34524,-0.33546 v -3.01611 l -1.50728,-1.50732 -1.84283,-1.67432 -1.6743,-1.75927 -2.0112,-1.59082 -2.00977,-1.84278 -0.50243,-2.00976 -0.83647,-0.16846 -0.67088,-1.17187 -0.33547,-2.68067 1.50885,-2.51221 2.59567,-0.66943 1.59083,-1.92773 -1.00493,-2.42871 0.16853,-2.51221 1.84125,-1.67432 1.84282,-0.67089 0.67088,-1.84131 -0.33547,-1.59229 -0.66938,-1.42383 -0.8379,-2.00976 -1.9395,1.76367 -3.8481,1.86035 -2.56935,0.1919 -1.0239,-3.64893 -1.72125,-3.70019 -2.03467,-3.45704 -1.63035,-2.23096 -3.15675,1.34913 -5.1357,2.90185 -2.4024,0.27979 -2.34375,0.16846 -1.84276,1.17187 -2.09474,0.33545 -1.59075,1.84278 -1.92631,0.66942 -1.4238,2.17676 -2.68072,1.00635 -2.41845,0.50245 -0.0525,-5.4712 1.50735,-5.25 0.50243,-5.35986 0.66944,-2.39795 1.2129,-1.69043 3.05416,0.20654 2.93557,-1.81347 0.16845,-5.45361 1.11765,-7.89552 1.89697,-7.92333 -6.53317,0.66943 -0.50243,-2.17676 1.00485,-2.95752 0.16845,-3.3501 0.94778,-2.40234 1.56442,-1.61865 -0.83782,-2.67921 0.83782,-2.23535 1.34033,-1.67431 0.16702,-1.50879 h -2.34517 l -1.67438,-0.83643 -2.17822,-0.83789 0.009,-2.50342 2.51362,0.19336 1.90575,0.46436 -1.59082,-2.64111 0.4629,-2.10059 1.05472,-2.12256 2.01998,-1.34912 1.66552,-0.32666 1.84283,-0.50244 1.61865,-1.50732 1.22895,-1.89552 0.33547,-2.45946 1.3389,-2.1211 -0.2505,-2.86377 -0.89647,-3.80273 -0.0248,-2.26758 1.50727,-1.84278 -0.3354,-2.17822 0.50243,-2.62207 1.34032,-1.61865 0.8379,-2.29101 0.8379,-0.94922 -0.67095,-2.06689 -0.50242,-2.16358 0.50242,-3.30615 v -2.84473 l -1.17187,-2.34814 -2.0097,-1.06202 -0.67095,-1.50732 -1.17188,-1.00489 -1.1733,-1.67577 -5.69535,0.83789 -1.00485,-3.3501 -0.16702,-2.68067 -2.5122,-2.17675 -4.6362,-1.30958 -4.40918,-2.20898 -1.21875,-0.87012 -1.18072,-3.02636 -0.83055,-1.96143 -4.68893,-1.00635 -3.72802,-2.85791 -2.80523,-0.82617 -3.51855,1.50732 -3.34567,-2.63525 -2.85203,-0.3794 2.64105,-10.69189 1.54688,-1.14111 0.33547,-3.17725 0.16703,-2.41113 0.16845,-2.00977 0.8364,-1.67578 -1.00485,-2.17676 -1.44143,-0.33544 0.26955,-2.34522 0.18158,-2.34521 -4.36958,-0.167 -3.0147,0.50244 -2.58247,0.83789 -1.10745,1.34034 -3.0102,-0.33545 -1.96583,1.6333 -2.71732,0.58301 -2.42288,-1.04443 -1.93942,-1.50733 -1.50735,2.17822 -2.23388,2.23389 -3.12742,-1.06201 -2.28075,-2.28077 -2.74365,-1.40331 -2.55765,-1.06056 -2.40233,-1.43261 -3.41602,-0.68994 -4.69043,1.00488 -4.02097,-2.12256 -4.39605,-0.22265 -2.60595,-0.50244 -1.3725,-0.50245 -0.97268,-1.17187 -1.74465,-1.34034 -2.78175,-1.13378 -2.0376,0.16113 -0.67087,-1.37256 -0.24608,-2.92529 -3.0747,-1.13379 -3.2124,-0.46435 -1.19827,-0.8628 -1.31393,-0.30908 -1.50735,1.67432 -2.57962,0.3706 0.73687,-2.85498 -2.00977,-1.53515 -0.8379,-1.84278 -2.18265,-0.66943 -2.1987,1.70068 -2.31885,1.64942 -1.6743,1.17188 -0.76762,1.84277 -0.0705,2.34521 -0.58448,2.12842 -1.95412,1.58203 0.051,1.84277 -1.8648,-1.36963 -2.0097,-0.33545 -1.7403,1.63623 -1.77825,-0.003 0.50242,1.21436 -1.23487,3.18164 -2.95313,-0.16699 2.40968,-2.97656 -2.87108,-1.18653 -2.1153,-1.6084 0.18022,2.85938 -2.4375,1.30078 -2.70262,-0.085 -3.08647,1.32422 -0.0967,1.87939 -1.4868,1.00489 -2.30565,1.62011 -2.63962,3.4336 -0.72075,3.8833 -0.8247,1.78418 -1.7373,-0.50244 -0.50243,-1.50733 -0.50242,-1.34033 -0.33548,-1.38135 -0.50242,-2.13721 -0.5025,1.27735 -1.67573,0.90088 -0.66945,1.54981 0.32955,2.14013 -3.0102,0.49805 -5.52688,-2.17822 -1.34033,-5.02442 -3.1831,-7.3711 -8.81982,1.12794 -5.54883,-1.84131 -3.38673,0.21093 -2.66894,-1.00488 -0.89062,-2.05078 -2.78321,0.37647 -1.53076,-0.98291 -3.5581,-6.01172 -0.12598,-1.21289 -1.17335,-1.34033 0.50245,-1.67579 -1.17187,-2.17675 v -2.66895 l -2.21924,-0.89062 -1.2583,-1.67432 -0.375,-2.3042 -1.67579,-1.17187 -2.17675,-0.6709 2.05077,-6.070313 -0.20946,-2.304202 -3.85254,-2.512208 -3.15821,-0.565425 -1.36377,-1.948245 v -2.166502 l -8.91943,-3.90381 -2.45947,1.212892 -2.22656,-2.145997 -1.87354,0.117187 4.42383,-16.395996 -0.50245,-3.016114 -3.52587,0.08789 -4.1792,-2.433106 -3.22558,2.506348 -2.65723,0.262207 -4.00049,-0.925782 -4.396,1.381348 -1.85888,-4.190917 -2.44483,1.804687 -4.86914,-1.674316 -4.09863,-7.048829 -0.58887,-2.818359 -7.03711,-4.371094 -4.18799,5.695313 -6.54639,-3.449708 -1.80761,-3.584472 -7.70508,-3.181641 1.34033,-2.995605 -1.42236,-3.357422 -2.09619,1.568848 -1.75928,-1.83545 -3.7705,0.427735 -0.2461,-1.504395 -3.7749,0.0249 -6.52881,-4.557129 0.33398,-1.338867 1.50733,-0.335449 -0.12158,-2.192871 -3.60792,-2.731934 -3.76025,-1.77539 -4.60547,-0.101075 -7.98632,-10.8706048 -3.1377,-0.5053711 -2.4082,2.9677736 5.19286,9.3471673 -0.92138,6.953614 -1.59229,2.425781 -3.51708,-1.278808 -3.85254,-5.755371 1.00488,-1.006348 -1.92774,-1.258301 -0.082,-5.869629 z m 335.82718,166.627438 0.66937,6.60791 -0.33397,-3.22119 z M 8.150391,394.68896 l 0.959472,0.31202 0.8422852,0.33544 z M 143.95019,407.896 c -0.77277,1.28793 -1.5486,2.49709 -2.68066,3.51855 z m 254.28809,23.58105 0.3252,4.72851 -0.33399,-4.66113 z"/>
</svg>
